<svg width="70" height="50" viewBox="0 0 70 50" fill="none" xmlns="http://www.w3.org/2000/svg">
<path d="M1.44 24.48H11.6V11.96H1.72V8.44H8.6C10.68 8.44 11.68 7.24 11.68 5.04V7.6294e-07H15.28V24.48H22.52V28H1.44V24.48ZM38.8078 10.16C47.2478 10.16 49.0478 13.72 49.0478 19.2C49.0478 24.96 45.9278 28.6 37.1678 28.6C30.2478 28.6 25.0878 26.52 24.9678 19.16H28.8878C29.0078 24.32 32.6478 25.08 37.1678 25.08C43.7278 25.08 45.2478 22.72 45.2478 19.16C45.2478 15.64 44.1678 13.52 38.2078 13.52H27.3678V0.4H47.4478V3.92H30.8078V10.16H38.8078ZM1.81581 40.5H7.09381V47H5.94981V41.475H2.92081V43.984C2.92081 46.064 2.37481 47 1.07481 47H0.866813V45.96C1.54281 45.96 1.81581 45.557 1.81581 43.828V40.5ZM14.9288 44.179H9.53375C9.57275 45.843 10.4438 46.22 11.7698 46.22C12.7968 46.22 13.6288 45.999 13.7978 45.037H14.9288C14.6818 46.649 13.4728 47.195 11.7698 47.195C9.66375 47.195 8.38975 46.376 8.38975 43.789C8.38975 41.124 9.66375 40.305 11.7438 40.305C13.7328 40.305 14.9288 41.267 14.9288 43.308V44.179ZM11.7438 41.28C10.5348 41.28 9.61175 41.605 9.54675 43.256H13.7718C13.7718 41.696 12.9398 41.28 11.7438 41.28ZM21.3137 40.5V41.475H18.9477V47H17.8037V41.475H15.4377V40.5H21.3137ZM28.6773 47.195C27.5853 47.195 26.7533 46.805 26.3503 45.921H26.2203V49.34H25.0763V40.5H26.2203V41.579H26.3503C26.7533 40.695 27.5853 40.305 28.6773 40.305C30.5363 40.305 31.6283 40.981 31.6283 43.75C31.6283 46.519 30.5363 47.195 28.6773 47.195ZM28.2483 41.28C27.2213 41.28 26.2203 41.527 26.2203 42.879V44.621C26.2203 45.973 27.2213 46.22 28.2483 46.22C29.8733 46.22 30.4973 45.934 30.4973 43.75C30.4973 41.566 29.8733 41.28 28.2483 41.28ZM35.067 47.195C33.65 47.195 32.623 46.636 32.623 45.128C32.623 44.218 33.104 43.126 35.327 43.126C36.38 43.126 36.861 43.165 37.654 43.204V42.658C37.654 41.67 37.134 41.28 35.834 41.28C34.69 41.28 34.118 41.527 33.949 42.58H32.844C33.091 40.864 34.053 40.305 35.834 40.305C37.693 40.305 38.798 40.981 38.798 42.658V47H37.654V45.921H37.524C37.121 46.805 36.159 47.195 35.067 47.195ZM35.444 46.22C36.484 46.22 37.589 45.973 37.654 44.725V44.049C36.926 44.01 36.289 43.997 35.769 43.997C34.001 43.997 33.767 44.53 33.767 45.115C33.767 45.96 34.3 46.22 35.444 46.22ZM43.5226 47.195C41.3386 47.195 40.0646 46.376 40.0646 43.659C40.0646 41.176 39.9736 39.109 42.6256 38.407C44.3546 37.952 45.3686 37.705 45.8886 37.458L46.2136 38.459C45.4466 38.81 44.8616 38.94 42.9766 39.421C41.1696 39.876 41.2476 41.423 41.2086 42.177H41.3386C41.7546 41.293 42.5866 40.825 43.8346 40.825C45.4856 40.825 46.8116 41.462 46.8116 43.919C46.8116 46.402 45.6026 47.195 43.5226 47.195ZM43.5226 46.22C44.8616 46.22 45.6806 45.83 45.6806 43.919C45.6806 42.177 44.9136 41.8 43.5096 41.8C42.1966 41.8 41.1956 42.177 41.1956 43.919C41.1956 45.83 42.0796 46.22 43.5226 46.22ZM51.2776 46.22C52.6686 46.22 53.5266 45.804 53.5266 43.789C53.5266 41.709 52.6686 41.28 51.2776 41.28C49.8866 41.28 49.0416 41.696 49.0416 43.789C49.0416 45.804 49.8866 46.22 51.2776 46.22ZM51.2776 40.305C53.4096 40.305 54.6576 41.124 54.6576 43.789C54.6576 46.376 53.4096 47.195 51.2776 47.195C49.1716 47.195 47.8976 46.376 47.8976 43.789C47.8976 41.124 49.1716 40.305 51.2776 40.305ZM60.9104 40.5V41.475H58.5444V47H57.4004V41.475H55.0344V40.5H60.9104ZM64.535 42.866C66.238 42.866 66.81 43.724 66.81 44.868C66.81 46.129 66.134 47 64.678 47H61.753V40.5H62.897V42.866H64.535ZM69.02 40.5V47H67.876V40.5H69.02ZM62.897 43.789V46.025H64.418C65.185 46.025 65.679 45.752 65.679 44.868C65.679 44.244 65.445 43.789 64.522 43.789H62.897Z" fill="#A0A0A0"/>
</svg>
