<svg width="405" height="57" viewBox="0 0 405 57" fill="none" xmlns="http://www.w3.org/2000/svg">
<g clip-path="url(#clip0_2001_2)">
<g filter="url(#filter0_d_2001_2)">
<path d="M388.799 48.126H363.839V54.99H353.231V48.126H346.679V40.794H353.231V35.49H346.679V28.158H353.231V1.16998H378.035C391.373 1.16998 396.989 6.39598 396.989 18.798C396.989 30.342 390.905 35.49 378.191 35.49H363.839V40.794H388.799V48.126ZM363.839 10.296V28.158H376.475C383.027 28.158 386.225 25.896 386.225 19.032C386.225 12.558 383.807 10.296 376.319 10.296H363.839Z" fill="white"/>
</g>
<g filter="url(#filter1_d_2001_2)">
<path d="M298.599 9.36C289.161 9.36 284.793 11.466 284.793 28.158C284.793 44.148 289.161 46.8 298.599 46.8C308.193 46.8 312.405 44.148 312.405 28.158C312.405 11.466 308.193 9.36 298.599 9.36ZM298.599 56.16C281.751 56.16 274.029 49.92 274.029 28.158C274.029 5.46 282.609 0 298.599 0C314.745 0 323.169 5.46 323.169 28.158C323.169 49.92 315.525 56.16 298.599 56.16Z" fill="white"/>
</g>
<g filter="url(#filter2_d_2001_2)">
<path d="M243.527 9.36C234.089 9.36 229.721 11.466 229.721 28.158C229.721 44.148 234.089 46.8 243.527 46.8C253.121 46.8 257.333 44.148 257.333 28.158C257.333 11.466 253.121 9.36 243.527 9.36ZM243.527 56.16C226.679 56.16 218.957 49.92 218.957 28.158C218.957 5.46 227.537 0 243.527 0C259.673 0 268.097 5.46 268.097 28.158C268.097 49.92 260.453 56.16 243.527 56.16Z" fill="white"/>
</g>
<g filter="url(#filter3_d_2001_2)">
<path d="M188.455 9.36C179.017 9.36 174.649 11.466 174.649 28.158C174.649 44.148 179.017 46.8 188.455 46.8C198.049 46.8 202.261 44.148 202.261 28.158C202.261 11.466 198.049 9.36 188.455 9.36ZM188.455 56.16C171.607 56.16 163.885 49.92 163.885 28.158C163.885 5.46 172.465 0 188.455 0C204.601 0 213.025 5.46 213.025 28.158C213.025 49.92 205.381 56.16 188.455 56.16Z" fill="white"/>
</g>
<g filter="url(#filter4_d_2001_2)">
<path d="M115.025 9.36C105.587 9.36 101.219 11.466 101.219 28.158C101.219 44.148 105.587 46.8 115.025 46.8C124.619 46.8 128.831 44.148 128.831 28.158C128.831 11.466 124.619 9.36 115.025 9.36ZM115.025 56.16C98.1771 56.16 90.4551 49.92 90.4551 28.158C90.4551 5.46 99.0351 0 115.025 0C131.171 0 139.595 5.46 139.595 28.158C139.595 49.92 131.951 56.16 115.025 56.16Z" fill="white"/>
</g>
<g filter="url(#filter5_d_2001_2)">
<path d="M62.5269 19.344C79.6089 19.344 84.1329 25.74 84.1329 37.206C84.1329 48.828 77.8929 56.16 60.1089 56.16C45.1329 56.16 35.6169 51.246 35.8509 36.114H46.6929C46.9269 44.616 51.8409 46.8 59.9529 46.8C70.5609 46.8 73.2129 42.978 73.2129 36.816C73.2129 30.888 71.2629 27.222 61.2789 27.222H40.4529V1.16998H80.7789V10.296H49.5009V19.344H62.5269Z" fill="white"/>
</g>
<g filter="url(#filter6_d_2001_2)">
<path d="M26.188 54.99H15.58V20.436H7V12.48H9.808C14.098 12.48 16.282 10.062 16.282 5.22599V1.16998H26.188V54.99Z" fill="white"/>
</g>
<path d="M0 28L404.29 28" stroke="#C6455B" stroke-width="5" stroke-linecap="square"/>
</g>
<defs>
<filter id="filter0_d_2001_2" x="342.679" y="-1.83002" width="58.3101" height="61.82" filterUnits="userSpaceOnUse" color-interpolation-filters="sRGB">
<feFlood flood-opacity="0" result="BackgroundImageFix"/>
<feColorMatrix in="SourceAlpha" type="matrix" values="0 0 0 0 0 0 0 0 0 0 0 0 0 0 0 0 0 0 127 0" result="hardAlpha"/>
<feOffset dy="1"/>
<feGaussianBlur stdDeviation="2"/>
<feComposite in2="hardAlpha" operator="out"/>
<feColorMatrix type="matrix" values="0 0 0 0 1 0 0 0 0 1 0 0 0 0 1 0 0 0 0.16 0"/>
<feBlend mode="normal" in2="BackgroundImageFix" result="effect1_dropShadow_2001_2"/>
<feBlend mode="normal" in="SourceGraphic" in2="effect1_dropShadow_2001_2" result="shape"/>
</filter>
<filter id="filter1_d_2001_2" x="270.029" y="-3" width="57.14" height="64.16" filterUnits="userSpaceOnUse" color-interpolation-filters="sRGB">
<feFlood flood-opacity="0" result="BackgroundImageFix"/>
<feColorMatrix in="SourceAlpha" type="matrix" values="0 0 0 0 0 0 0 0 0 0 0 0 0 0 0 0 0 0 127 0" result="hardAlpha"/>
<feOffset dy="1"/>
<feGaussianBlur stdDeviation="2"/>
<feComposite in2="hardAlpha" operator="out"/>
<feColorMatrix type="matrix" values="0 0 0 0 1 0 0 0 0 1 0 0 0 0 1 0 0 0 0.16 0"/>
<feBlend mode="normal" in2="BackgroundImageFix" result="effect1_dropShadow_2001_2"/>
<feBlend mode="normal" in="SourceGraphic" in2="effect1_dropShadow_2001_2" result="shape"/>
</filter>
<filter id="filter2_d_2001_2" x="214.957" y="-3" width="57.14" height="64.16" filterUnits="userSpaceOnUse" color-interpolation-filters="sRGB">
<feFlood flood-opacity="0" result="BackgroundImageFix"/>
<feColorMatrix in="SourceAlpha" type="matrix" values="0 0 0 0 0 0 0 0 0 0 0 0 0 0 0 0 0 0 127 0" result="hardAlpha"/>
<feOffset dy="1"/>
<feGaussianBlur stdDeviation="2"/>
<feComposite in2="hardAlpha" operator="out"/>
<feColorMatrix type="matrix" values="0 0 0 0 1 0 0 0 0 1 0 0 0 0 1 0 0 0 0.16 0"/>
<feBlend mode="normal" in2="BackgroundImageFix" result="effect1_dropShadow_2001_2"/>
<feBlend mode="normal" in="SourceGraphic" in2="effect1_dropShadow_2001_2" result="shape"/>
</filter>
<filter id="filter3_d_2001_2" x="159.885" y="-3" width="57.14" height="64.16" filterUnits="userSpaceOnUse" color-interpolation-filters="sRGB">
<feFlood flood-opacity="0" result="BackgroundImageFix"/>
<feColorMatrix in="SourceAlpha" type="matrix" values="0 0 0 0 0 0 0 0 0 0 0 0 0 0 0 0 0 0 127 0" result="hardAlpha"/>
<feOffset dy="1"/>
<feGaussianBlur stdDeviation="2"/>
<feComposite in2="hardAlpha" operator="out"/>
<feColorMatrix type="matrix" values="0 0 0 0 1 0 0 0 0 1 0 0 0 0 1 0 0 0 0.16 0"/>
<feBlend mode="normal" in2="BackgroundImageFix" result="effect1_dropShadow_2001_2"/>
<feBlend mode="normal" in="SourceGraphic" in2="effect1_dropShadow_2001_2" result="shape"/>
</filter>
<filter id="filter4_d_2001_2" x="86.4551" y="-3" width="57.14" height="64.16" filterUnits="userSpaceOnUse" color-interpolation-filters="sRGB">
<feFlood flood-opacity="0" result="BackgroundImageFix"/>
<feColorMatrix in="SourceAlpha" type="matrix" values="0 0 0 0 0 0 0 0 0 0 0 0 0 0 0 0 0 0 127 0" result="hardAlpha"/>
<feOffset dy="1"/>
<feGaussianBlur stdDeviation="2"/>
<feComposite in2="hardAlpha" operator="out"/>
<feColorMatrix type="matrix" values="0 0 0 0 1 0 0 0 0 1 0 0 0 0 1 0 0 0 0.16 0"/>
<feBlend mode="normal" in2="BackgroundImageFix" result="effect1_dropShadow_2001_2"/>
<feBlend mode="normal" in="SourceGraphic" in2="effect1_dropShadow_2001_2" result="shape"/>
</filter>
<filter id="filter5_d_2001_2" x="31.8467" y="-1.83002" width="56.2863" height="62.9901" filterUnits="userSpaceOnUse" color-interpolation-filters="sRGB">
<feFlood flood-opacity="0" result="BackgroundImageFix"/>
<feColorMatrix in="SourceAlpha" type="matrix" values="0 0 0 0 0 0 0 0 0 0 0 0 0 0 0 0 0 0 127 0" result="hardAlpha"/>
<feOffset dy="1"/>
<feGaussianBlur stdDeviation="2"/>
<feComposite in2="hardAlpha" operator="out"/>
<feColorMatrix type="matrix" values="0 0 0 0 1 0 0 0 0 1 0 0 0 0 1 0 0 0 0.16 0"/>
<feBlend mode="normal" in2="BackgroundImageFix" result="effect1_dropShadow_2001_2"/>
<feBlend mode="normal" in="SourceGraphic" in2="effect1_dropShadow_2001_2" result="shape"/>
</filter>
<filter id="filter6_d_2001_2" x="3" y="-1.83002" width="27.188" height="61.82" filterUnits="userSpaceOnUse" color-interpolation-filters="sRGB">
<feFlood flood-opacity="0" result="BackgroundImageFix"/>
<feColorMatrix in="SourceAlpha" type="matrix" values="0 0 0 0 0 0 0 0 0 0 0 0 0 0 0 0 0 0 127 0" result="hardAlpha"/>
<feOffset dy="1"/>
<feGaussianBlur stdDeviation="2"/>
<feComposite in2="hardAlpha" operator="out"/>
<feColorMatrix type="matrix" values="0 0 0 0 1 0 0 0 0 1 0 0 0 0 1 0 0 0 0.16 0"/>
<feBlend mode="normal" in2="BackgroundImageFix" result="effect1_dropShadow_2001_2"/>
<feBlend mode="normal" in="SourceGraphic" in2="effect1_dropShadow_2001_2" result="shape"/>
</filter>
<clipPath id="clip0_2001_2">
<rect width="404.29" height="56.16" fill="white"/>
</clipPath>
</defs>
</svg>
