<svg width="24" height="21" viewBox="0 0 24 21" fill="none" xmlns="http://www.w3.org/2000/svg">
<g clip-path="url(#clip0_498_39)">
<path fill-rule="evenodd" clip-rule="evenodd" d="M18.293 0.425293H1.71C1.25648 0.425293 0.821535 0.606731 0.500847 0.929693C0.18016 1.25265 0 1.69068 0 2.14742L0 18.845C0 19.3017 0.18016 19.7398 0.500847 20.0627C0.821535 20.3857 1.25648 20.5671 1.71 20.5671H18.293C18.746 20.5663 19.1802 20.3845 19.5002 20.0617C19.8203 19.7388 20 19.3012 20 18.845V2.14742C20 1.69121 19.8203 1.25363 19.5002 0.930759C19.1802 0.607885 18.746 0.426093 18.293 0.425293ZM18.673 13.3795C18.6719 14.93 18.0595 16.4167 16.9704 17.5126C15.8813 18.6085 14.4046 19.2239 12.865 19.2237H7.148C5.60868 19.2237 4.13238 18.608 3.04378 17.5119C1.95517 16.4159 1.3434 14.9293 1.343 13.379V7.60989C1.34293 6.84219 1.49305 6.08199 1.78477 5.37273C2.07648 4.66347 2.50409 4.01903 3.04316 3.47623C3.58223 2.93343 4.2222 2.5029 4.92652 2.20924C5.63084 1.91557 6.3857 1.76453 7.148 1.76473H12.8775C14.4171 1.76499 15.8935 2.38079 16.9825 3.47681C18.0715 4.57284 18.6838 6.05941 18.685 7.60989L18.672 13.379L18.673 13.3795Z" fill="white"/>
<path d="M22.244 0.425239C22.461 0.425743 22.6745 0.481636 22.864 0.587381C23.0625 0.693126 23.226 0.854764 23.334 1.05215C23.4427 1.24385 23.4999 1.46081 23.4999 1.68159C23.4999 1.90236 23.4427 2.11932 23.334 2.31102C23.2255 2.5074 23.064 2.66954 22.867 2.77831C22.6758 2.88638 22.4602 2.94309 22.241 2.94297C22.0272 2.93878 21.8177 2.88116 21.6315 2.77529C21.4361 2.66673 21.2753 2.50473 21.1675 2.308C21.0574 2.11674 20.9995 1.89961 20.9995 1.67857C20.9995 1.45752 21.0574 1.24039 21.1675 1.04913C21.274 0.850736 21.435 0.68658 21.6315 0.576303C21.8198 0.474971 22.0305 0.42302 22.244 0.425239ZM22.244 0.631693C22.0632 0.633142 21.8856 0.680233 21.7275 0.768658C21.5625 0.857785 21.4265 0.992232 21.335 1.15639C21.2441 1.31619 21.1962 1.49716 21.1962 1.68133C21.1962 1.86551 21.2441 2.04648 21.335 2.20628C21.425 2.36993 21.5605 2.50438 21.725 2.59401C21.8837 2.68605 22.0636 2.7345 22.2467 2.7345C22.4299 2.7345 22.6098 2.68605 22.7685 2.59401C22.9325 2.50438 23.068 2.36993 23.1585 2.20628C23.2494 2.04648 23.2972 1.86551 23.2972 1.68133C23.2972 1.49716 23.2494 1.31619 23.1585 1.15639C23.0676 0.991532 22.931 0.85683 22.7655 0.768658C22.6059 0.679415 22.4265 0.632297 22.244 0.631693ZM21.744 2.33015V0.975111H22.208C22.3245 0.969572 22.4415 0.981658 22.554 1.01036C22.624 1.03403 22.684 1.08086 22.724 1.14279C22.7573 1.19169 22.7781 1.24815 22.7845 1.30711C22.7908 1.36607 22.7826 1.4257 22.7605 1.48067C22.7421 1.52518 22.7149 1.56545 22.6805 1.59901C22.608 1.67419 22.5095 1.71836 22.4055 1.72237C22.4479 1.73902 22.4871 1.76325 22.521 1.79388C22.5975 1.87847 22.665 1.97012 22.7215 2.06881L22.8865 2.34375H22.6115L22.4915 2.12924C22.4346 2.01111 22.3573 1.90419 22.263 1.81352C22.2109 1.77955 22.1494 1.76315 22.0875 1.76669H21.9585V2.34375L21.744 2.33015ZM21.961 1.56577H22.236C22.3257 1.57523 22.4161 1.55509 22.4935 1.50837C22.5164 1.49119 22.5348 1.46873 22.5472 1.44288C22.5597 1.41702 22.5658 1.38854 22.565 1.35982C22.5664 1.32092 22.5538 1.28283 22.5295 1.25257C22.5072 1.22011 22.4756 1.19519 22.439 1.18106C22.3676 1.16047 22.2932 1.15213 22.219 1.15639H21.969L21.961 1.56577Z" fill="white"/>
</g>
<defs>
<clipPath id="clip0_498_39">
<rect width="23.5" height="20.1418" fill="white" transform="translate(0 0.425293)"/>
</clipPath>
</defs>
</svg>
