<svg width="21" height="25" viewBox="0 0 21 25" fill="none" xmlns="http://www.w3.org/2000/svg">
<path d="M1.47609 3.40832C0 4.89497 0 7.28792 0 12.0732V12.9192C0 17.7046 0 20.0975 1.47609 21.5841C2.95228 23.0707 5.32837 23.0707 10.08 23.0707H10.92C15.6717 23.0707 18.0478 23.0707 19.5239 21.5841C21 20.0975 21 17.7046 21 12.9192V12.0732C21 7.28787 21 4.89493 19.5239 3.40832C18.0478 1.92175 15.6717 1.92175 10.92 1.92175H10.08C5.32833 1.92175 2.95223 1.92175 1.47609 3.40832ZM3.54375 8.35462H5.94127C6.02002 12.3905 7.78748 14.1 9.1875 14.4525V8.35457H11.445V11.8353C12.8275 11.6855 14.28 10.0994 14.77 8.35457H17.0275C16.8428 9.25945 16.4747 10.1162 15.9462 10.8713C15.4178 11.6264 14.7403 12.2636 13.9562 12.743C14.8317 13.1807 15.605 13.8006 16.2249 14.5616C16.8449 15.3227 17.2974 16.2076 17.5525 17.1578H15.0675C14.8385 16.3324 14.3726 15.5935 13.7281 15.0338C13.0836 14.4741 12.2894 14.1186 11.445 14.0119V17.1578H11.1737C6.38752 17.1578 3.65752 13.8533 3.54375 8.35457" fill="white"/>
</svg>
