<svg width="61" height="16" viewBox="0 0 61 16" fill="none" xmlns="http://www.w3.org/2000/svg">
<g clip-path="url(#clip0_498_71)">
<path d="M6.17048 3.01306C4.54715 3.01306 3.73549 3.52778 3.73549 4.55722C3.73549 5.01475 3.93654 5.36505 4.33865 5.60811C4.74076 5.85117 5.68273 6.20147 7.16458 6.659C8.64642 7.11653 9.68519 7.63482 10.2809 8.21388C10.8766 8.79294 11.1745 9.68298 11.1745 10.884C11.1745 12.4139 10.6905 13.572 9.72243 14.3584C8.75439 15.1447 7.48849 15.5379 5.92474 15.5379C4.7631 15.5379 3.34083 15.3664 1.65793 15.0232L0.853718 14.8731L1.16647 12.5783C3.16211 12.8356 4.68863 12.9643 5.74603 12.9643C7.32467 12.9643 8.114 12.3352 8.114 11.077C8.114 10.6195 7.93156 10.262 7.56668 10.0047C7.20181 9.74732 6.47578 9.46851 5.3886 9.16826C3.66103 8.69643 2.44353 8.13524 1.73612 7.48469C1.02871 6.83414 0.675003 5.92981 0.675003 4.77169C0.675003 3.31331 1.13668 2.22668 2.06004 1.51179C2.9834 0.796898 4.24929 0.439453 5.85772 0.439453C6.9598 0.439453 8.35973 0.582431 10.0575 0.868387L10.8617 1.01851L10.616 3.3562C8.5161 3.12744 7.03426 3.01306 6.17048 3.01306Z" fill="white"/>
<path d="M17.0526 15.5308C18.8993 15.5308 20.2173 15.0411 21.0066 14.0617C21.7959 13.0823 22.1906 11.7061 22.1906 9.93321C22.1906 6.17289 20.4779 4.29272 17.0526 4.29272C13.6272 4.29272 11.9145 6.17289 11.9145 9.93321C11.9145 11.7061 12.3092 13.0823 13.0985 14.0617C13.8878 15.0411 15.2058 15.5308 17.0526 15.5308ZM17.0526 6.73765C17.8419 6.73765 18.3892 6.99501 18.6945 7.50973C18.9998 8.02445 19.1525 8.83228 19.1525 9.93321C19.1525 11.0341 18.9998 11.8348 18.6945 12.3352C18.3892 12.8357 17.8419 13.0859 17.0526 13.0859C16.2632 13.0859 15.7159 12.8357 15.4106 12.3352C15.1053 11.8348 14.9527 11.0341 14.9527 9.93321C14.9527 8.83228 15.1053 8.02445 15.4106 7.50973C15.7159 6.99501 16.2632 6.73765 17.0526 6.73765Z" fill="white"/>
<path d="M23.3552 12.6044C25.2019 12.8332 26.4939 12.9476 27.2311 12.9476C27.9683 12.9476 28.4448 12.8832 28.6608 12.7546C28.8767 12.6259 28.9847 12.4221 28.9847 12.1433C28.9847 11.8645 28.8395 11.6715 28.5491 11.5643C28.2587 11.457 27.514 11.2998 26.3151 11.0924C25.1163 10.8851 24.2637 10.5456 23.7573 10.0737C23.2509 9.6019 22.9978 8.83697 22.9978 7.77893C22.9978 5.46269 24.4945 4.30457 27.488 4.30457C28.4709 4.30457 29.6623 4.43325 31.0623 4.69061L31.7771 4.81929L31.6878 7.22132C29.841 6.99255 28.5565 6.87817 27.8342 6.87817C27.1119 6.87817 26.6204 6.94608 26.3598 7.08191C26.0992 7.21774 25.9689 7.42149 25.9689 7.69314C25.9689 7.9648 26.1066 8.16497 26.3822 8.29365C26.6577 8.42233 27.3725 8.57961 28.5267 8.76548C29.6809 8.95135 30.541 9.2659 31.1069 9.70913C31.6729 10.1524 31.9558 10.9423 31.9558 12.079C31.9558 13.2157 31.5537 14.0735 30.7495 14.6526C29.9453 15.2317 28.9102 15.5212 27.6443 15.5212C26.7657 15.5212 25.5668 15.3854 24.0477 15.1137L23.3105 14.985L23.3552 12.6044Z" fill="white"/>
<path d="M39.6537 7.01H36.906V11.4066C36.906 11.8355 36.9171 12.1393 36.9395 12.3181C36.9618 12.4968 37.0437 12.6505 37.1852 12.7792C37.3267 12.9078 37.5464 12.9722 37.8442 12.9722L39.542 12.9293L39.676 15.2241C38.6782 15.4386 37.9187 15.5458 37.3974 15.5458C36.0571 15.5458 35.1412 15.2563 34.6497 14.6772C34.1582 14.0981 33.9125 13.0294 33.9125 11.4709V7.01H32.5945V4.56508H33.9125V1.58398H36.906V4.56508H39.6537V7.01Z" fill="white"/>
<path d="M49.6241 7.90285V12.3638C49.6539 12.7069 49.7135 12.9464 49.8028 13.0822C49.8922 13.2181 50.0784 13.3146 50.3613 13.3718L50.272 15.5379C49.5124 15.5379 48.9056 15.4878 48.4513 15.3877C47.9971 15.2877 47.5391 15.0875 47.0775 14.7872C46.0052 15.2877 44.9105 15.5379 43.7936 15.5379C41.4852 15.5379 40.331 14.3655 40.331 12.0206C40.331 10.8768 40.6512 10.0654 41.2916 9.58642C41.932 9.10744 42.9149 8.82506 44.2404 8.73927L46.6307 8.5677V7.90285C46.6307 7.45962 46.5264 7.15579 46.3179 6.99137C46.1094 6.82694 45.7743 6.74473 45.3126 6.74473L41.1129 6.9163L41.0235 4.92176C42.617 4.50712 44.1324 4.2998 45.5695 4.2998C47.0067 4.2998 48.0418 4.58576 48.6747 5.15767C49.3077 5.72958 49.6241 6.64464 49.6241 7.90285ZM44.5978 10.7338C43.7638 10.8053 43.3468 11.2342 43.3468 12.0206C43.3468 12.807 43.7117 13.2002 44.4414 13.2002C45.0073 13.2002 45.6254 13.1144 46.2956 12.9428L46.6307 12.857V10.5622L44.5978 10.7338Z" fill="white"/>
<path d="M60.675 4.81543H57.5475L55.7604 13.0939H55.1349L53.2583 4.81543H50.2202L52.9009 15.5388H57.9943L60.675 4.81543Z" fill="white"/>
</g>
<defs>
<clipPath id="clip0_498_71">
<rect width="60" height="15.1064" fill="white" transform="translate(0.675003 0.439453)"/>
</clipPath>
</defs>
</svg>
