<svg width="117" height="45" viewBox="0 0 117 45" fill="none" xmlns="http://www.w3.org/2000/svg">
<path d="M23.5444 11.4021L21.8004 14.2229C26.5915 18.2639 27.2676 25.5158 23.3092 30.407C19.3509 35.2982 12.2474 35.9884 7.45622 31.9474C2.66504 27.9064 1.98899 20.6545 5.94734 15.7633C9.21005 11.7322 14.7263 10.4619 19.3705 12.6625L20.6638 13.2726L25.9155 4.77045L23.1721 3L19.3901 9.10156C17.842 8.55142 16.2156 8.27135 14.5793 8.27135C6.52542 8.28135 -0.00978691 14.9431 1.10028e-05 23.1752C1.10028e-05 31.3973 6.53522 38.069 14.5891 38.069C22.643 38.069 29.1782 31.3973 29.1782 23.1752C29.1782 18.574 27.0912 14.2329 23.5346 11.4121H23.5444V11.4021Z" fill="white"/>
<path d="M41.6313 20.2344H44.845L40.4849 25.1657L45.1095 31.2572H41.9154L38.4176 26.446H36.9479V31.2472H34.2633V16.0533H36.9479V25.8058L41.6313 20.2344Z" fill="white"/>
<path d="M51.0372 29.3767C52.3991 29.3767 53.8198 28.9766 53.8884 27.2162V20.2344H56.6122V31.2472H53.8884V29.1967H53.5944C53.0751 30.7871 51.6544 31.5773 49.93 31.5773C47.6177 31.5773 46.0892 30.7371 46.0892 27.8063V20.2244H48.8327V27.5362C48.8229 29.0466 49.5773 29.3767 51.0372 29.3767Z" fill="white"/>
<path d="M64.0782 22.4349H58.4542V20.2344H67.625V21.8448L61.4915 29.0466H67.9581V31.2472H58.0329V29.5568L64.0782 22.4349Z" fill="white"/>
<path d="M74.6795 22.1049C73.1021 22.1049 72.1712 22.715 72.1125 24.1354V31.2472H69.3886V20.2344H72.1125V22.2849H72.3966C72.8963 20.6945 74.121 19.9043 75.8749 19.9043C78.2949 19.9043 79.9116 20.7445 79.9116 23.6753V31.2572H77.1878V23.9453C77.178 22.4349 76.2962 22.1049 74.6795 22.1049Z" fill="white"/>
<path d="M84.4089 26.3659V26.386C84.4676 28.7666 85.6042 29.3867 87.4266 29.3867C88.8669 29.3867 89.9251 29.0366 90.1112 27.6263H92.8351C92.5509 30.617 90.5717 31.5873 87.3972 31.5873C83.6838 31.5873 81.685 30.1969 81.685 25.8058C81.685 21.2947 83.6642 19.9043 87.3776 19.9043C90.8951 19.9043 92.8351 21.4247 92.8351 24.9456V26.3559L84.4089 26.3659ZM90.1014 24.9956C90.1014 22.795 89.0237 22.1049 87.358 22.1049C85.6924 22.1049 84.5166 22.635 84.3991 24.9156V25.0056L90.1014 24.9956Z" fill="white"/>
<path d="M99.4977 31.247C96.8424 31.247 95.4413 30.1267 95.4413 27.376V22.4447H93.6483V20.2442H95.4413V16.0631H98.1652V20.2442H101.957V22.4447H98.1652V27.266C98.1652 28.6763 98.8314 28.9664 100.105 28.9664H101.957V31.257H99.4977V31.247Z" fill="white"/>
<path d="M105.67 23.2752C105.67 23.9753 106.268 24.2654 107.16 24.4154L110.226 24.9456C112.294 25.2957 113.264 26.2259 113.264 27.9864C113.264 30.1869 111.863 31.5773 108.061 31.5773C104.759 31.5773 102.907 30.587 102.731 27.5663H105.367C105.474 29.0866 106.64 29.5068 108.11 29.5068C110.119 29.5068 110.697 28.9266 110.697 28.0264C110.697 27.3162 110.099 27.0761 109.276 26.9261L106.043 26.3559C104.23 26.0259 103.133 25.0956 103.133 23.2552C103.133 21.4047 104.426 19.9043 108.032 19.9043C111.098 19.9043 112.97 20.8745 113.205 23.8053H110.579C110.471 22.3249 109.305 21.9748 108.032 21.9748C106.209 21.9748 105.67 22.505 105.67 23.2752Z" fill="white"/>
<g opacity="0.65">
<path d="M35.0177 39.8194H34.9393V40.4696H34.2632V35.0282H34.9393V37.1787H35.0177C35.2528 36.6386 35.7525 36.4085 36.3992 36.4085C37.5063 36.4085 38.153 36.8187 38.153 38.4991C38.153 40.1795 37.5063 40.5896 36.3992 40.5896C35.7525 40.5896 35.2626 40.3596 35.0177 39.8194ZM34.9393 37.979V39.0392C34.9393 39.8594 35.5369 40.0095 36.1444 40.0095C37.1046 40.0095 37.4769 39.8394 37.4769 38.5091C37.4769 37.1787 37.1046 37.0087 36.1444 37.0087C35.5369 37.0087 34.9393 37.1587 34.9393 37.979Z" fill="white"/>
<path d="M41.3764 37.1686L41.1903 37.1586C39.9263 37.0986 39.6324 37.6187 39.603 38.4889V40.4694H38.927V36.5284H39.603V37.4887H39.6814C39.9263 36.8185 40.2007 36.5284 41.1903 36.5284H41.3764V37.1686Z" fill="white"/>
<path d="M41.6507 39.3393C41.6507 38.7892 41.9348 38.129 43.2576 38.129C43.8846 38.129 44.1688 38.149 44.6391 38.179V37.8489C44.6391 37.2488 44.3353 37.0087 43.5613 37.0087C42.8852 37.0087 42.5423 37.1588 42.4443 37.7989H41.7879C41.9348 36.7587 42.5031 36.4186 43.5613 36.4186C44.6685 36.4186 45.3249 36.8287 45.3249 37.8489V40.4796H44.6489V39.8295H44.5705C44.3353 40.3696 43.7572 40.5996 43.1106 40.5996C42.2582 40.5896 41.6507 40.2496 41.6507 39.3393ZM44.6293 39.0993V38.6892C44.1982 38.6692 43.816 38.6592 43.5123 38.6592C42.4639 38.6592 42.3268 38.9792 42.3268 39.3393C42.3268 39.8495 42.6403 40.0095 43.3261 40.0095C43.9336 39.9995 44.5901 39.8495 44.6293 39.0993Z" fill="white"/>
<path d="M47.9899 37.0086C47.2845 37.0086 46.8828 37.2587 46.8632 37.8488V40.4695H46.1871V36.5285H46.8632V37.1786H46.9416C47.1473 36.6385 47.6078 36.4084 48.2447 36.4084C49.1657 36.4084 49.7732 36.6885 49.7732 37.7288V40.4595H49.0971V37.7288C49.0971 37.1286 48.7052 37.0086 47.9899 37.0086Z" fill="white"/>
<path d="M50.5277 38.4991C50.5277 36.8187 51.1743 36.4085 52.2815 36.4085C52.9282 36.4085 53.4279 36.6486 53.663 37.1787H53.7414V35.0282H54.4175V40.4696H53.7414V39.8194H53.663C53.4279 40.3596 52.9282 40.5896 52.2815 40.5896C51.1743 40.5896 50.5277 40.1795 50.5277 38.4991ZM53.7316 39.0992V37.9289C53.712 37.1687 53.1143 37.0187 52.5264 37.0187C51.5565 37.0187 51.1939 37.1887 51.1939 38.5191C51.1939 39.8494 51.5663 40.0195 52.5264 40.0195C53.1143 39.9995 53.712 39.8494 53.7316 39.0992Z" fill="white"/>
<path d="M58.9736 40.5896C57.7194 40.5896 56.965 40.0895 56.965 38.5291C56.965 36.9187 57.7194 36.4186 58.9736 36.4186C59.973 36.4186 60.6686 36.7487 60.8254 37.7989H60.1493C60.0219 37.1588 59.5516 37.0087 58.9736 37.0087C58.1505 37.0087 57.641 37.2588 57.641 38.5291C57.641 39.7494 58.1407 39.9995 58.9736 39.9995C59.5908 39.9995 60.0513 39.8395 60.1787 39.1893H60.8548C60.698 40.2396 59.9828 40.5896 58.9736 40.5896Z" fill="white"/>
<path d="M65.4304 38.5291C65.4304 40.0995 64.6857 40.5896 63.4218 40.5896C62.1677 40.5896 61.4132 40.0895 61.4132 38.5291C61.4132 36.9187 62.1677 36.4186 63.4218 36.4186C64.6955 36.4186 65.4304 36.9087 65.4304 38.5291ZM64.7641 38.5291C64.7641 37.2688 64.2546 37.0087 63.4316 37.0087C62.6086 37.0087 62.0991 37.2588 62.0991 38.5291C62.0991 39.7494 62.5988 39.9995 63.4316 39.9995C64.2644 39.9995 64.7641 39.7494 64.7641 38.5291Z" fill="white"/>
<path d="M68.0169 37.0086C67.3115 37.0086 66.9098 37.2587 66.8902 37.8488V40.4695H66.2141V36.5285H66.8902V37.1786H66.9686C67.1743 36.6385 67.6348 36.4084 68.2717 36.4084C69.1927 36.4084 69.8002 36.6885 69.8002 37.7288V40.4595H69.1241V37.7288C69.1241 37.1286 68.7224 37.0086 68.0169 37.0086Z" fill="white"/>
<path d="M71.2992 37.5889C71.2992 37.909 71.554 38.039 71.9361 38.099L73.0824 38.2791C73.8173 38.3991 74.1602 38.7092 74.1602 39.3393C74.1602 40.0995 73.6507 40.5896 72.3182 40.5896C71.2894 40.5896 70.5546 40.2396 70.4468 39.1893H71.1229C71.1817 39.8395 71.7107 39.9995 72.3182 39.9995C73.2392 39.9995 73.494 39.7494 73.494 39.3493C73.494 39.0292 73.249 38.9192 72.9061 38.8592L71.6911 38.6592C71.0347 38.5391 70.633 38.219 70.633 37.5889C70.633 36.9387 71.1229 36.4186 72.328 36.4186C73.298 36.4186 74.0328 36.7487 74.1308 37.7989H73.4548C73.396 37.1588 72.8865 37.0087 72.328 37.0087C71.5148 37.0087 71.2992 37.2388 71.2992 37.5889Z" fill="white"/>
<path d="M76.5216 39.9993C77.0996 39.9993 77.7757 39.8493 77.7953 39.0891V36.5284H78.4713V40.4694H77.7953V39.8193H77.7169C77.4817 40.3594 76.9233 40.5895 76.2962 40.5895C75.4438 40.5895 74.8853 40.3094 74.8853 39.2691V36.5384H75.5614V39.2691C75.5614 39.8893 75.8945 39.9993 76.5216 39.9993Z" fill="white"/>
<path d="M79.3727 40.4696V35.0282H80.0487V40.4696H79.3727Z" fill="white"/>
<path d="M82.6157 40.4695C81.7633 40.4695 81.2048 40.1894 81.2048 39.1491V37.1286H80.5386V36.5385H81.2048V35.0381H81.8809V36.5385H83.4584V37.1286H81.8809V39.1491C81.8809 39.7693 82.1846 39.8793 82.7627 39.8793H83.4682V40.4695H82.6157Z" fill="white"/>
<path d="M84.0366 35.0681H84.7813V35.8083H84.0366V35.0681ZM84.7421 40.4695H84.066V36.5285H84.7421V40.4695Z" fill="white"/>
<path d="M87.4756 37.0086C86.7603 37.0086 86.3684 37.2587 86.3488 37.8488V40.4695H85.6728V36.5285H86.3488V37.1786H86.4272C86.633 36.6385 87.0935 36.4084 87.7303 36.4084C88.6513 36.4084 89.2588 36.6885 89.2588 37.7288V40.4595H88.5827V37.7288C88.5827 37.1286 88.181 37.0086 87.4756 37.0086Z" fill="white"/>
<path d="M93.1389 39.6593C92.9037 40.1994 92.404 40.4295 91.7574 40.4295C90.6502 40.4295 90.0035 40.0394 90.0035 38.419C90.0035 36.8086 90.6502 36.4084 91.7574 36.4084C92.404 36.4084 92.9037 36.6485 93.1389 37.1786H93.2173V36.5285H93.8933V40.0194C93.8933 41.5198 93.1389 41.9999 91.8847 41.9999C90.8756 41.9999 90.1603 41.6698 90.0133 40.6895H90.6894C90.7874 41.2697 91.2871 41.4097 91.8945 41.4097C92.7176 41.4097 93.2173 41.1697 93.2173 40.0194V39.6593H93.1389ZM93.2173 38.9391V37.9788C93.2173 37.1586 92.6196 37.0086 92.0121 37.0086C91.0421 37.0086 90.6796 37.1886 90.6796 38.429C90.6796 39.6693 91.0519 39.8493 92.0121 39.8493C92.6 39.8393 93.1977 39.6893 93.2173 38.9391Z" fill="white"/>
</g>
</svg>
