<svg width="25" height="26" viewBox="0 0 25 26" fill="none" xmlns="http://www.w3.org/2000/svg">
<g opacity="0.5" clip-path="url(#clip0_346_2034)">
<path fill-rule="evenodd" clip-rule="evenodd" d="M0 0.74646H24.134V25.8087H0V0.74646ZM5.56898 6.49862L7.34301 2.67411H9.28022V8.45759H7.92253V4.31862L6.18766 7.81481H4.95002L3.21572 4.31862V8.45759H1.85803V2.67411H3.79552L5.56898 6.49862ZM16.0789 2.67411V3.82556H18.504L18.4986 8.45611H19.8563L19.8622 3.82556H22.2878V2.67411H16.0789ZM20.6606 22.5152C20.8033 22.3725 20.8924 22.1833 20.9265 21.9526V21.9523L20.9254 21.9502H22.2845C22.2473 22.4274 22.0903 22.8344 21.8187 23.1594C21.5704 23.4568 21.227 23.6743 20.7985 23.8066C20.3824 23.9351 19.8673 24.0029 19.2169 24.0029C18.5664 24.0029 18.0014 23.9051 17.5382 23.7138C17.068 23.5193 16.703 23.1948 16.4527 22.7492C16.2134 22.3222 16.0877 21.7525 16.0792 21.0534V20.9895L16.1519 20.9868L16.0792 20.9841V20.9196C16.0871 20.2211 16.2129 19.6509 16.4527 19.2238C16.7027 18.7782 17.0677 18.4537 17.5382 18.2592C18.0014 18.0671 18.5664 17.9701 19.2169 17.9701C19.8356 17.9701 20.3822 18.0382 20.7985 18.1667C21.2267 18.2993 21.5704 18.5165 21.8187 18.8139C22.0903 19.1389 22.2473 19.5459 22.2845 20.0231H20.9259C20.8916 19.7923 20.8025 19.6028 20.6597 19.4596C20.5249 19.3255 20.3413 19.2291 20.1154 19.1752C19.8915 19.1218 19.5765 19.0909 19.2166 19.0909C18.8567 19.0909 18.538 19.1395 18.2696 19.2347C18.009 19.3279 17.8027 19.4894 17.6568 19.7151C17.5098 19.9426 17.4355 20.2709 17.4355 20.6918V21.283C17.4355 21.7038 17.5098 22.0322 17.6568 22.2597C17.8033 22.486 18.0096 22.6475 18.2701 22.7401C18.5386 22.8358 18.8698 22.8839 19.2172 22.8839C19.5645 22.8839 19.8923 22.8535 20.1162 22.7996C20.3427 22.746 20.5258 22.6502 20.6606 22.5152Z" fill="#A0A0A0"/>
</g>
<defs>
<clipPath id="clip0_346_2034">
<rect width="24.134" height="25.0622" fill="white" transform="translate(0 0.74646)"/>
</clipPath>
</defs>
</svg>
