<svg width="69" height="16" viewBox="0 0 69 16" fill="none" xmlns="http://www.w3.org/2000/svg">
<g opacity="0.5" clip-path="url(#clip0_346_2049)">
<path d="M66.6178 3.72986L64.2741 6.50254V3.72986H62.5781V10.7292H64.2741V7.7824L66.7827 10.7292H68.9737L65.8881 7.06186L68.7503 3.72986H66.6178Z" fill="#A0A0A0"/>
<path d="M59.5876 6.34032H57.2439V3.72986H55.547V10.7292H57.2439V7.9695H59.5876V10.7292H61.2836V3.72986H59.5876V6.34032Z" fill="#A0A0A0"/>
<path d="M10.3552 7.52165C10.3146 8.82738 10.1553 9.08813 9.4605 9.08813V10.7292H9.71976C11.4535 10.7292 11.8702 9.78379 11.9343 7.68287L12.005 5.35804H13.6303V10.7292H15.3263V3.72986H10.474L10.3561 7.52165H10.3552Z" fill="#A0A0A0"/>
<path d="M19.5414 5.85565H18.3167V3.72986H16.6207V10.7302H19.5649C21.4137 10.7302 22.0736 9.46233 22.0736 8.26806C22.0736 6.72647 21.1554 5.85565 19.5414 5.85565ZM19.4113 9.18765H18.3158V7.40919H19.4113C20.0005 7.40919 20.3531 7.68287 20.3531 8.26707C20.3531 8.90102 20.0118 9.18765 19.4113 9.18765Z" fill="#A0A0A0"/>
<path d="M27.5972 3.56758V0.969055H25.9012V3.56758C23.9582 3.74174 22.6506 5.19675 22.6506 7.22302C22.6506 9.24929 23.9582 10.7172 25.9012 10.8904V13.5267H27.5972V10.8904C29.5402 10.7292 30.8478 9.26123 30.8478 7.22302C30.8478 5.18481 29.5402 3.7288 27.5972 3.56758ZM25.9012 9.20052C24.9594 9.06318 24.3701 8.31776 24.3701 7.22402C24.3701 6.13027 24.9594 5.38385 25.9012 5.24751V9.20152V9.20052ZM27.5972 9.20052V5.24651C28.539 5.38286 29.1282 6.12927 29.1282 7.22302C29.1282 8.31677 28.539 9.06318 27.5972 9.19953" fill="#A0A0A0"/>
<path d="M37.2086 8.57856V6.22884C37.2086 4.51308 36.1725 3.43127 34.4293 3.43127C32.6862 3.43127 31.6737 4.57578 31.5907 5.76905H33.3103C33.3687 5.5083 33.628 5.06045 34.4293 5.06045C35.0893 5.06045 35.5126 5.3839 35.5126 6.22884H33.8278C32.3204 6.22884 31.4248 7.06184 31.4248 8.45415C31.4248 9.84647 32.4043 10.9034 33.8156 10.9034C34.8507 10.9034 35.4258 10.3869 35.6766 9.99575C35.9 10.4685 36.395 10.7292 37.0426 10.7292H37.6319V9.11299C37.3255 9.11299 37.2076 8.96371 37.2076 8.57856M35.5126 8.11876C35.5126 8.92688 34.9705 9.38667 34.2643 9.38667C33.6516 9.38667 33.1689 9.15081 33.1689 8.45415C33.1689 7.7575 33.6987 7.65897 34.1578 7.65897H35.5126V8.11876Z" fill="#A0A0A0"/>
<path d="M44.4763 4.72402H42.5804V2.74751H46.9736V0.969055H40.8014V10.7292H44.4763C46.5135 10.7292 47.6797 9.66032 47.6797 7.69575C47.6797 5.84364 46.5135 4.72402 44.4763 4.72402ZM44.3933 8.96366H42.5794V6.42684H44.3933C45.3351 6.42684 45.8659 6.88664 45.8659 7.69476C45.8659 8.50287 45.336 8.96267 44.3933 8.96267" fill="#A0A0A0"/>
<path d="M54.1696 8.57856V6.22884C54.1696 4.51308 53.1336 3.43127 51.3904 3.43127C49.6473 3.43127 48.6347 4.57578 48.5518 5.76905H50.2714C50.3298 5.5083 50.5891 5.06045 51.3904 5.06045C52.0503 5.06045 52.4736 5.3839 52.4736 6.22884H50.7889C49.2815 6.22884 48.3858 7.06184 48.3858 8.45415C48.3858 9.84647 49.3654 10.9034 50.7767 10.9034C51.8118 10.9034 52.3869 10.3869 52.6377 9.99575C52.8611 10.4685 53.356 10.7292 54.0037 10.7292H54.5929V9.11299C54.2865 9.11299 54.1687 8.96371 54.1687 8.57856M52.4736 8.11876C52.4736 8.92688 51.9315 9.38667 51.2254 9.38667C50.6126 9.38667 50.1299 9.15081 50.1299 8.45415C50.1299 7.7575 50.6598 7.65897 51.1189 7.65897H52.4736V8.11876Z" fill="#A0A0A0"/>
<path d="M9.35398 13.7139H0.284691V15.7034H9.35398V13.7139Z" fill="#A0A0A0"/>
<path d="M6.46821 2.30863C6.20896 1.49454 5.91105 0.851624 4.89004 0.851624C3.86904 0.851624 3.55133 1.49155 3.27982 2.30863L0.473244 10.7292H2.33424L2.98191 8.7278H6.56249L7.16302 10.7292H9.14186L6.46821 2.30863ZM3.52399 7.03692L4.79577 3.04608H4.84291L6.04397 7.03692H3.52305H3.52399Z" fill="#A0A0A0"/>
</g>
<defs>
<clipPath id="clip0_346_2049">
<rect width="68.689" height="14.8517" fill="white" transform="translate(0.284691 0.851746)"/>
</clipPath>
</defs>
</svg>
