<svg width="73" height="25" viewBox="0 0 73 25" fill="none" xmlns="http://www.w3.org/2000/svg">
<g opacity="0.5" clip-path="url(#clip0_346_2042)">
<mask id="mask0_346_2042" style="mask-type:luminance" maskUnits="userSpaceOnUse" x="0" y="0" width="73" height="25">
<path d="M72.5263 0.641174H0.124405V24.7751H72.5263V0.641174Z" fill="white"/>
</mask>
<g mask="url(#mask0_346_2042)">
<path d="M4.87038 21.2263C1.79418 21.2263 0.124397 18.8507 0.124397 15.8731C0.124397 12.8954 2.08965 10.3987 5.31948 10.3987C6.17548 10.3987 6.92004 10.5198 7.56669 10.8796V12.8195C6.71069 12.2789 6.02184 12.1723 5.39039 12.1723C3.20059 12.1723 2.39186 13.9024 2.39186 15.7212C2.39186 17.7515 3.40994 19.3606 5.19285 19.3606C5.97963 19.3606 6.61276 19.1273 7.37083 18.6916L7.91786 20.2627C6.7816 21.0293 5.81079 21.2245 4.87038 21.2245M39.453 21.2245C37.1788 21.2245 36.0122 19.4365 36.0122 17.2995C36.0122 14.9095 37.557 13.3293 39.6202 13.3293C40.5336 13.3293 41.0097 13.5246 41.3896 13.765V15.4789C40.8848 15.0866 40.4762 14.9528 39.9156 14.9528C38.7507 14.9528 38.001 15.8713 38.001 17.1929C38.001 18.3807 38.5818 19.5377 39.8886 19.5377C40.2533 19.5377 40.7362 19.3696 41.2562 19.0839L41.7425 20.4995C41.1532 20.9208 40.1706 21.2209 39.453 21.2209M45.781 15.1915V21.0709H43.7584V15.1915H41.7931V13.4776H47.9995L47.5605 15.1915H45.781ZM55.56 14.3653C55.56 17.0103 55.4621 18.3951 55.013 19.0261C54.7884 19.3425 54.4372 19.5522 54.0725 19.6119L54.6348 21.2209C55.0974 21.2064 55.8149 20.9949 56.3062 20.4688C56.9529 19.7927 57.1622 18.9357 57.2602 18.0335C57.3446 17.267 57.4003 16.3648 57.4003 15.5675V15.1915H58.9806V21.0709H61.0033V13.4776H55.56V14.3653ZM32.6338 13.3275C31.847 13.3275 31.2442 13.7343 30.7242 14.17L30.4997 13.4776H28.8012V24.7699L30.8238 24.1895V20.9045C31.1902 21.1142 31.6663 21.2209 32.1863 21.2209C34.2782 21.2209 35.5411 19.3117 35.5411 17.0573C35.5411 14.6509 34.263 13.3275 32.6354 13.3275M31.695 19.6589C31.3287 19.6589 31.0484 19.5233 30.8238 19.3588V15.7646C31.0636 15.3741 31.695 14.9076 32.2285 14.9076C33.0423 14.9076 33.5201 15.4645 33.5201 17.0283C33.5201 18.321 33.071 19.6589 31.695 19.6589ZM50.9086 13.3275C49.9529 13.3275 49.0277 13.4866 48.0586 14.1592L48.6715 15.4699C49.1476 15.1824 49.7605 14.9583 50.478 14.9583C51.1956 14.9583 51.8068 15.2909 51.8068 16.0882V16.2166L50.581 16.2672C48.7914 16.3305 47.5842 17.1621 47.5842 18.7603C47.5842 20.2645 48.5972 21.2209 49.9411 21.2209C50.8528 21.2209 51.4792 20.8539 51.9401 20.4055L52.2542 21.0709H53.8362V16.1388C53.8362 14.1411 52.7911 13.3257 50.9102 13.3257M51.8068 19.1906C51.6126 19.3497 51.2091 19.5414 50.6722 19.5414C49.985 19.5414 49.5967 19.1743 49.5967 18.5994C49.5967 18.0245 50.0137 17.7045 50.8799 17.672L51.8051 17.6412V19.1906H51.8068ZM64.9338 15.9436H63.8954V13.1467L61.8728 13.7271V21.0709H64.4576C66.3385 21.0709 68.0944 20.5285 68.0944 18.4385C68.0944 16.6649 66.6761 15.9418 64.9338 15.9418M64.5961 19.5721H63.8937V17.4532H64.5691C65.2849 17.4532 66.0717 17.5743 66.0717 18.4747C66.0717 19.375 65.3964 19.5721 64.5961 19.5721ZM19.7195 16.9343V16.8729C20.3796 16.7228 20.9267 16.2564 20.9267 15.2638C20.9267 14.0796 19.9981 13.6475 19.0847 13.5155C18.8044 13.4758 18.1915 13.474 17.8505 13.474H14.96V21.0672H17.3879C17.6563 21.0672 18.0565 21.0672 18.3688 21.0564C19.6452 20.9913 21.2221 20.5032 21.2221 18.7368C21.2221 17.6539 20.6734 17.1133 19.7195 16.9325M17.0232 14.9203H17.8522C18.6795 14.9203 18.9901 15.1915 18.9901 15.6579C18.9901 16.2437 18.4853 16.4245 17.6411 16.4245H17.0232V14.9203ZM17.81 19.6263H16.981V17.7624H17.712C18.6812 17.7624 19.2012 18.0028 19.2012 18.6808C19.2012 19.4021 18.514 19.6281 17.8116 19.6281M14.2982 17.2055C14.2982 14.8588 12.9492 13.3257 11.0126 13.3257C8.89205 13.3257 7.69838 15.1608 7.69838 17.2959C7.69838 19.2955 8.73841 21.2191 11.2659 21.2191C12.1219 21.2191 13.0758 21.0094 14.0601 20.3477L13.611 18.9791C12.8107 19.3859 12.2907 19.5197 11.6036 19.5197C10.6631 19.5197 9.76324 18.8887 9.72103 17.8654H14.2999V17.2055H14.2982ZM9.67882 16.3793C9.67882 15.6869 10.1431 14.9058 10.9569 14.9058C11.8146 14.9058 12.1928 15.6579 12.235 16.3793H9.67882ZM28.2271 17.2055C28.2271 14.8588 26.8781 13.3257 24.9416 13.3257C22.821 13.3257 21.6273 15.1608 21.6273 17.2959C21.6273 19.2955 22.6674 21.2191 25.1948 21.2191C26.0508 21.2191 27.0065 21.0094 27.9891 20.3477L27.54 18.9791C26.7414 19.3859 26.2197 19.5197 25.5325 19.5197C24.5921 19.5197 23.6939 18.8887 23.6517 17.8654H28.2288V17.2055H28.2271ZM23.6078 16.3793C23.6078 15.6869 24.0721 14.9058 24.8842 14.9058C25.7419 14.9058 26.1201 15.6579 26.1623 16.3793H23.6061H23.6078Z" fill="#A0A0A0"/>
<path d="M71.6889 8.11882C71.5741 8.2056 71.4542 8.27249 71.3343 8.31227C70.9342 8.44786 70.4412 8.32312 69.9972 8.12786C69.6814 7.98865 69.3505 7.80786 69.0027 7.57825C69.1851 7.10457 69.3539 6.56401 69.4991 5.96378C69.7236 5.0345 69.8317 4.21551 69.8536 3.49596C69.8672 3.05121 69.8486 2.64443 69.803 2.27561C69.7405 1.76758 69.5953 1.24871 69.2847 0.944979C69.1867 0.850967 69.0669 0.771419 68.9335 0.706333C69.5666 0.632208 70.1288 0.626785 70.6252 0.666559C71.1469 0.713565 71.6771 0.850967 71.9877 1.17639C72.2984 1.50182 72.4351 2.06951 72.4892 2.62454C72.5398 3.15607 72.5432 3.75811 72.4841 4.4397C72.425 5.11044 72.3035 5.85711 72.1025 6.68514C71.9776 7.19678 71.8358 7.68673 71.6889 8.11701M64.044 7.69757C64.0322 7.54752 64.0372 7.40469 64.0643 7.2709C64.1554 6.83158 64.5015 6.43745 64.8814 6.12287C65.1532 5.9005 65.4639 5.68355 65.8235 5.47564C66.1156 5.88061 66.4685 6.30909 66.8804 6.74299C67.5203 7.41735 68.1281 7.92537 68.6988 8.30504C69.0517 8.54007 69.3893 8.72447 69.7118 8.8673C70.1542 9.06256 70.6455 9.1873 71.0473 9.05171C71.1723 9.00832 71.2972 8.936 71.4154 8.84561C71.1587 9.46934 70.8819 9.99364 70.6016 10.4348C70.3027 10.8958 69.9262 11.3188 69.5075 11.4436C69.0888 11.5683 68.562 11.411 68.0859 11.1833C67.6301 10.9645 67.1405 10.668 66.6204 10.2721C66.1072 9.88155 65.5635 9.39521 64.9945 8.79498C64.6434 8.42436 64.3175 8.0465 64.0423 7.69577M68.1957 0.816617C68.3223 0.881702 68.4371 0.957635 68.53 1.04984C68.8389 1.35357 68.9858 1.87244 69.05 2.38228C69.0956 2.74567 69.1141 3.14341 69.1023 3.57912C68.6279 3.64783 68.1062 3.75992 67.549 3.92625C66.6846 4.18297 65.9687 4.49213 65.3761 4.83202C65.0097 5.04173 64.6906 5.2623 64.4138 5.4901C64.0339 5.80287 63.6878 6.197 63.5966 6.63632C63.5696 6.77373 63.5645 6.92559 63.5797 7.08107C63.2032 6.53146 62.9179 6.01259 62.7018 5.53168C62.4789 5.02365 62.3252 4.4632 62.4333 4.01303C62.5414 3.56285 62.9314 3.15245 63.3535 2.82341C63.7587 2.51064 64.2432 2.2051 64.824 1.91945C65.3964 1.63922 66.0616 1.37888 66.8315 1.14927C67.3076 1.00826 67.7753 0.896165 68.1974 0.816617" fill="#A0A0A0"/>
</g>
</g>
<defs>
<clipPath id="clip0_346_2042">
<rect width="72.4019" height="24.134" fill="white" transform="translate(0.124405 0.641174)"/>
</clipPath>
</defs>
</svg>
