<svg width="64" height="39" viewBox="0 0 64 39" fill="none" xmlns="http://www.w3.org/2000/svg">
<g opacity="0.5">
<path d="M16.5699 33.8681V34.0364C16.5699 34.4271 16.754 34.7336 17.1326 34.974C17.6135 35.2806 18.3706 35.4609 19.1892 35.4609C20.6728 35.4609 21.8648 34.8418 21.8648 34.0424C21.8648 33.5255 21.4851 33.1348 20.7382 32.9845C21.4033 32.7682 21.6704 32.4676 21.6704 32.0529C21.6704 31.3677 20.5807 30.8688 19.1687 30.8688C18.3911 30.8688 17.6442 31.0191 17.2145 31.2595C16.8154 31.4819 16.6517 31.7524 16.6517 32.1791H18.1865C18.1865 31.8425 18.5344 31.6382 19.1176 31.6382C19.6906 31.6382 20.079 31.8425 20.079 32.1431C20.079 32.4616 19.6599 32.684 19.0664 32.684H18.606V33.4353H19.179C19.4143 33.4353 19.6496 33.4774 19.8543 33.5555C20.1305 33.6637 20.253 33.82 20.253 34.0544C20.253 34.4511 19.8543 34.6915 19.2096 34.6915C18.8311 34.6915 18.5139 34.6134 18.34 34.4812C18.1762 34.3549 18.1046 34.1866 18.1046 33.8681H16.5699Z" fill="#A0A0A0" stroke="#A0A0A0" stroke-width="0.62313"/>
<path d="M24.4139 30.889L22.5572 35.3025H24.079L24.2437 34.889H26.6022L26.7664 35.3025H28.2881L26.4309 30.889H24.4139ZM25.4241 31.924L26.2766 34.0704H24.5693L25.4241 31.924Z" fill="#A0A0A0" stroke="#A0A0A0" stroke-width="0.554841"/>
<path d="M38.0868 31.634C37.6254 31.634 37.2675 31.7621 37.0132 32.0183C36.7589 32.2745 36.6317 32.6351 36.6317 33.1001C36.6317 33.5632 36.7589 33.9229 37.0132 34.179C37.2675 34.4352 37.6254 34.5633 38.0868 34.5633C38.5509 34.5633 38.9101 34.4352 39.1644 34.179C39.4187 33.9229 39.5459 33.5632 39.5459 33.1001C39.5459 32.6351 39.4187 32.2745 39.1644 32.0183C38.9101 31.7621 38.5509 31.634 38.0868 31.634ZM38.0868 30.8093C39.0307 30.8093 39.77 31.0123 40.3049 31.4182C40.8397 31.8242 41.1072 32.3848 41.1072 33.1001C41.1072 33.8135 40.8397 34.3731 40.3049 34.7791C39.77 35.185 39.0307 35.388 38.0868 35.388C37.1456 35.388 36.4062 35.185 35.8688 34.7791C35.3339 34.3731 35.0665 33.8135 35.0665 33.1001C35.0665 32.3848 35.3339 31.8242 35.8688 31.4182C36.4062 31.0123 37.1456 30.8093 38.0868 30.8093Z" fill="#A0A0A0" stroke="#A0A0A0" stroke-width="0.554841"/>
<path d="M43.9414 34.4421H45.8948V31.7493H44.3071V32.0183C44.3071 33.2795 44.1852 34.0874 43.9414 34.4421ZM42.1559 34.4421C42.4286 34.3062 42.6029 34.1387 42.679 33.9396C42.755 33.7386 42.793 32.9997 42.793 31.7227V30.8892H47.4089V34.4421H47.9213V36.2511H46.5648V35.3023H43.0714V36.2511H41.7155V34.4421H42.1559Z" fill="#A0A0A0" stroke="#A0A0A0" stroke-width="0.554841"/>
<path d="M31.8764 32.5977C32.115 32.5977 32.2959 32.5582 32.4191 32.4794C32.5423 32.4006 32.6039 32.2843 32.6039 32.1306C32.6039 31.9789 32.5423 31.8636 32.4191 31.7848C32.2959 31.704 32.115 31.6636 31.8764 31.6636H30.4784V32.5977H31.8764ZM31.9275 34.5279C32.2317 34.5279 32.4598 34.4796 32.6118 34.383C32.7665 34.2865 32.8439 34.1406 32.8439 33.9455C32.8439 33.7544 32.7678 33.6115 32.6158 33.5169C32.4637 33.4204 32.2343 33.3721 31.9275 33.3721H30.4784V34.5279H31.9275ZM33.4357 32.9405C33.7608 33.0115 34.0125 33.1425 34.1908 33.3337C34.3691 33.5248 34.4582 33.7593 34.4582 34.0372C34.4582 34.4628 34.3725 34.8307 33.9898 35.0396C33.607 35.2485 33.025 35.3023 32.2437 35.3023H28.9643V30.8892H32.0038C32.8192 30.8892 33.4091 30.9309 33.7735 31.1162C34.1405 31.3014 34.2183 31.6488 34.2183 32.0567C34.2183 32.2715 34.1515 32.4548 34.0177 32.6065C33.884 32.7563 33.69 32.8676 33.4357 32.9405Z" fill="#A0A0A0" stroke="#A0A0A0" stroke-width="0.554841"/>
<path d="M15.048 24.5983V29.0188H13.6102V25.9869L11.4712 29.0188H9.7773V24.5983H11.2151V27.6302L13.3542 24.5983H15.048Z" fill="#A0A0A0" stroke="#A0A0A0" stroke-width="0.555763"/>
<path d="M16.454 24.6007H19.3909C20.1381 24.6007 20.711 24.6751 21.1095 24.9254C21.5107 25.1737 21.6054 25.5791 21.6054 26.0402C21.6054 26.5033 21.5107 26.86 21.1095 27.1103C20.711 27.3586 20.1381 27.4827 19.3909 27.4827H17.9682V29.0138H16.454V24.6007ZM17.9682 25.4254V26.658H19.1238C19.4174 26.658 19.6442 26.6048 19.8042 26.4984C19.9641 26.39 20.0441 26.2373 20.0441 26.0402C20.0441 25.8432 19.9641 25.6914 19.8042 25.585C19.6442 25.4786 19.4174 25.4254 19.1238 25.4254H17.9682Z" fill="#A0A0A0" stroke="#A0A0A0" stroke-width="0.554841"/>
<path d="M25.3685 25.3456C24.907 25.3456 24.5492 25.4737 24.2948 25.7299C24.0405 25.9861 23.9133 26.3467 23.9133 26.8117C23.9133 27.2748 24.0405 27.6345 24.2948 27.8907C24.5492 28.1468 24.907 28.2749 25.3685 28.2749C25.8325 28.2749 26.1917 28.1468 26.446 27.8907C26.7004 27.6345 26.8275 27.2748 26.8275 26.8117C26.8275 26.3467 26.7004 25.9861 26.446 25.7299C26.1917 25.4737 25.8325 25.3456 25.3685 25.3456ZM25.3685 24.5209C26.3123 24.5209 27.0517 24.7239 27.5865 25.1298C28.1214 25.5358 28.3888 26.0964 28.3888 26.8117C28.3888 27.5251 28.1214 28.0848 27.5865 28.4907C27.0517 28.8966 26.3123 29.0996 25.3685 29.0996C24.4272 29.0996 23.6879 28.8966 23.1504 28.4907C22.6156 28.0848 22.3481 27.5251 22.3481 26.8117C22.3481 26.0964 22.6156 25.5358 23.1504 25.1298C23.6879 24.7239 24.4272 24.5209 25.3685 24.5209Z" fill="#A0A0A0" stroke="#A0A0A0" stroke-width="0.554841"/>
<path d="M32.4447 26.3091C32.6833 26.3091 32.8642 26.2697 32.9874 26.1909C33.1107 26.112 33.1723 25.9958 33.1723 25.8421C33.1723 25.6903 33.1106 25.575 32.9874 25.4962C32.8642 25.4154 32.6833 25.375 32.4447 25.375H31.0467V26.3091H32.4447ZM32.4959 28.2393C32.8 28.2393 33.0281 28.191 33.1802 28.0944C33.3349 27.9979 33.4122 27.8521 33.4122 27.657C33.4122 27.4658 33.3362 27.323 33.1841 27.2284C33.032 27.1318 32.8026 27.0835 32.4959 27.0835H31.0467V28.2393H32.4959ZM34.004 26.652C34.3291 26.7229 34.5808 26.854 34.7591 27.0451C34.9374 27.2363 35.0265 27.4708 35.0265 27.7486C35.0265 28.1743 34.9405 28.5423 34.5578 28.7512C34.175 28.9601 33.593 29.0137 32.8117 29.0137H29.5326V24.6006H32.5718C33.3872 24.6006 33.977 24.6425 34.3414 24.8278C34.7085 25.013 34.7866 25.3602 34.7866 25.7682C34.7866 25.983 34.7198 26.1662 34.5861 26.318C34.4524 26.4677 34.2583 26.5791 34.004 26.652Z" fill="#A0A0A0" stroke="#A0A0A0" stroke-width="0.554841"/>
<path d="M41.5332 26.2589C41.4894 25.8785 41.2191 25.4225 40.9473 25.175C40.4562 24.7281 39.6582 24.4805 38.7024 24.4805C36.8961 24.4805 35.7737 25.3621 35.7737 26.7933C35.7737 28.2123 36.8785 29.0939 38.6586 29.0939C40.2458 29.0939 41.4543 28.4599 41.5332 27.4515H39.8715C39.7838 28.013 39.1331 28.2265 38.6024 28.2265C38.0718 28.2265 37.3333 27.7655 37.3333 26.8053C37.3333 25.8331 38.0718 25.3603 38.6024 25.3603C39.1331 25.3603 39.7711 25.6647 39.8715 26.2589H41.5332Z" fill="#A0A0A0" stroke="#A0A0A0" stroke-width="0.578205"/>
<path d="M54.3669 24.5983V29.0188H52.929V25.9869L50.79 29.0188H49.0961V24.5983H50.5339V27.6302L52.673 24.5983H54.3669Z" fill="#A0A0A0" stroke="#A0A0A0" stroke-width="0.555763"/>
<path d="M56.9753 23.0424C57.0174 23.297 57.1517 23.4916 57.3775 23.6258C57.6034 23.758 58.0696 23.8245 58.4583 23.8245C58.8469 23.8245 59.3132 23.758 59.539 23.6258C59.7649 23.4916 59.8986 23.297 59.9406 23.0424H59.377C59.3219 23.1628 59.2317 23.2528 59.1056 23.312C58.9796 23.3712 58.6579 23.4011 58.4583 23.4011C58.2587 23.4011 57.937 23.3712 57.8109 23.312C57.6849 23.2527 57.5941 23.1628 57.5389 23.0424H56.9753ZM55.8229 24.5983V29.0189H57.5165L59.6556 25.9869V29.0189H61.0936V24.5983H59.3995L57.2604 27.6302V24.5983H55.8229Z" fill="#A0A0A0" stroke="#A0A0A0" stroke-width="0.555763"/>
<path d="M42.6997 24.6004V29.0139H44.2138V28.2788L45.3213 27.2532L46.4818 29.0139H48.4391L46.4431 26.2144L48.1854 24.6004H46.1219L44.2138 26.3671V24.6004H42.6997Z" fill="#A0A0A0" stroke="#A0A0A0" stroke-width="0.554841"/>
<path d="M3.38095 24.6004V29.0139H4.89507V28.2788L6.00262 27.2532L7.16303 29.0139H9.12039L7.12441 26.2144L8.86671 24.6004H6.80318L4.89507 26.3671V24.6004H3.38095Z" fill="#A0A0A0" stroke="#A0A0A0" stroke-width="0.554841"/>
<path fill-rule="evenodd" clip-rule="evenodd" d="M29.4877 2.60034L27.1193 7.03408L22.7365 9.42928V14.9911L27.1193 17.3863L29.4877 21.82H34.9868L37.3548 17.3863L41.7383 14.9911V9.42928L37.3552 7.03408L34.9868 2.60034H29.4877ZM32.2372 5.89695L38.4788 12.21L32.2372 18.5234L25.9957 12.21L32.2372 5.89695ZM29.9512 3.3837L25.6315 11.4691L33.6253 3.3837H29.9512ZM32.9699 5.52878L40.9637 9.89799V13.6142L32.9699 5.52878ZM23.5108 14.5224L31.5046 18.8916L23.5108 10.8062V14.5224ZM38.843 12.9512L34.5233 21.0366H30.8492L38.843 12.9512Z" fill="#A0A0A0"/>
</g>
</svg>
