<svg width="52" height="21" viewBox="0 0 52 21" fill="none" xmlns="http://www.w3.org/2000/svg">
<g opacity="0.5" clip-path="url(#clip0_346_2092)">
<path d="M16.4798 6.43656H13.9054V3.86597H16.4798V6.43656Z" fill="#A0A0A0"/>
<path d="M51.5566 0.751103V20.2346H1.39073V0.751103H51.5566ZM52 0.282349H0.947357V20.7034H52V0.282349Z" fill="#A0A0A0"/>
<path d="M4.34418 3.85846H7.00444V14.7305H12.7254V17.3162H4.34418V3.85846Z" fill="#A0A0A0"/>
<path d="M13.9054 7.04144H16.487V17.3162H13.9054V7.04144Z" fill="#A0A0A0"/>
<path d="M20.5816 9.63261V14.0026C20.5816 14.6377 20.8891 14.9704 21.454 14.9704H22.9272V17.4502H21.2395C19.1227 17.4502 18 16.2783 18 14.2067V4H20.5816V7.17543H23.4135V9.64017H20.5816V9.63261Z" fill="#A0A0A0"/>
<path d="M32.8991 7.0415V17.3163H30.6107L30.5105 16.598C29.8669 17.2104 29.0159 17.5658 27.9862 17.5658C25.8122 17.5658 24.4177 15.9856 24.4177 13.5058V7.0415H27.0207V13.1958C27.0207 14.2996 27.6429 15.0179 28.594 15.0179C29.3306 15.0179 29.9527 14.6701 30.3175 14.0728V7.03394H32.8991V7.0415Z" fill="#A0A0A0"/>
<path d="M48.61 10.8369V17.3163H46.0284V11.162C46.0284 10.0355 45.3848 9.33989 44.4194 9.33989C43.7614 9.33989 43.175 9.66499 42.7889 10.1791C42.8103 10.3832 42.8246 10.6101 42.8246 10.8369V17.3163H40.243V11.162C40.243 10.0355 39.5994 9.33989 38.634 9.33989C37.9904 9.33989 37.4326 9.64987 37.0464 10.1413V17.3238H34.4648V7.04904H36.7532L36.8319 7.68413C37.4755 7.08685 38.3265 6.78442 39.2776 6.78442C40.4218 6.78442 41.3515 7.23806 41.9951 8.03191C42.6745 7.20781 43.7042 6.78442 44.9056 6.78442C47.1583 6.78442 48.61 8.28141 48.61 10.8444V10.8369Z" fill="#A0A0A0"/>
</g>
<defs>
<clipPath id="clip0_346_2092">
<rect width="51.0526" height="20.4211" fill="white" transform="translate(0.947357 0.282349)"/>
</clipPath>
</defs>
</svg>
