<svg width="28" height="28" viewBox="0 0 28 28" fill="none" xmlns="http://www.w3.org/2000/svg">
<path d="M9.04838 6.45837C9.76725 6.45837 10.4321 6.51502 11.0396 6.6827C11.6483 6.79487 12.1466 7.0192 12.5888 7.29904C13.032 7.57927 13.3639 7.97166 13.5844 8.47621C13.806 8.98039 13.9174 9.59786 13.9174 10.2697C13.9174 11.0549 13.7509 11.7267 13.3639 12.2309C13.032 12.7362 12.4785 13.1837 11.8148 13.5202C12.7553 13.8012 13.4741 14.3054 13.9174 14.9772C14.3606 15.6491 14.6363 16.4909 14.6363 17.4437C14.6363 18.2289 14.4698 18.9007 14.193 19.4616C13.9174 20.0224 13.4741 20.5266 12.9758 20.8631C12.4342 21.2233 11.8358 21.4884 11.2061 21.6471C10.5424 21.8159 9.87863 21.9281 9.21488 21.9281H1.8V6.45837H9.04838ZM8.60513 12.7351C9.21375 12.7351 9.71213 12.5674 10.0991 12.2875C10.4861 12.0077 10.6526 11.5024 10.6526 10.8861C10.6526 10.5496 10.5964 10.2131 10.4861 9.98987C10.3759 9.76667 10.2094 9.59673 9.98888 9.42904C9.76342 9.30152 9.52095 9.20728 9.26888 9.1492C8.99213 9.09255 8.7165 9.09255 8.3835 9.09255H5.175V12.7362L8.60513 12.7351ZM8.77163 19.3494C9.1035 19.3494 9.43538 19.2928 9.71213 19.2372C9.98888 19.1806 10.2656 19.0696 10.4861 18.9007C10.7107 18.7357 10.8991 18.5259 11.0396 18.2844C11.1499 18.0046 11.2613 17.6681 11.2613 17.2761C11.2613 16.4909 11.0396 15.9301 10.5975 15.5381C10.1543 15.2016 9.54563 15.0339 8.82675 15.0339H5.175V19.3505L8.77163 19.3494ZM19.4501 19.2928C19.8926 19.7414 20.5564 19.9657 21.4414 19.9657C22.05 19.9657 22.6035 19.7981 23.0456 19.5182C23.4889 19.1813 23.7656 18.8449 23.8759 18.5087H26.5871C26.1439 19.8536 25.4801 20.8064 24.5959 21.4228C23.7094 21.9836 22.6586 22.3201 21.3863 22.3201C20.5723 22.3213 19.7653 22.1691 19.0069 21.8714C18.3241 21.615 17.7156 21.1913 17.2361 20.6387C16.7212 20.1236 16.3413 19.4879 16.1303 18.7886C15.8535 18.0601 15.7421 17.2761 15.7421 16.3787C15.7421 15.5381 15.8535 14.754 16.1303 14.0244C16.3957 13.3215 16.7899 12.6751 17.2924 12.1187C17.7896 11.6146 18.3983 11.167 19.062 10.8861C19.8009 10.5873 20.5901 10.435 21.3863 10.4374C22.3268 10.4374 23.157 10.6062 23.8759 10.9982C24.5959 11.3902 25.1483 11.8389 25.5904 12.5119C26.0336 13.1282 26.3666 13.8567 26.5871 14.6419C26.6974 15.4259 26.7525 16.2111 26.6974 17.1072H18.675C18.675 18.0046 19.0069 18.8452 19.4501 19.2939M22.9354 13.4092C22.5484 13.0172 21.9398 12.7929 21.2198 12.7929C20.7976 12.7865 20.3801 12.8825 20.0025 13.0727C19.6706 13.2415 19.4501 13.4658 19.2285 13.6902C19.0236 13.906 18.8886 14.1794 18.8415 14.4742C18.7853 14.7552 18.7301 14.9784 18.7301 15.2027H23.7094C23.5991 14.362 23.3224 13.8023 22.9354 13.4092ZM18.0664 7.52337H24.2629V9.03703H18.0675L18.0664 7.52337Z" fill="white"/>
</svg>
