<svg width="70" height="22" viewBox="0 0 70 22" fill="none" xmlns="http://www.w3.org/2000/svg">
<path d="M28.9607 7.47305C28.7207 7.27572 28.4407 7.11784 28.1207 6.99943C27.8007 6.88101 27.4407 6.84155 27.0407 6.84155H24.4007V15.0904H26.1607V12.0908H27.1607C27.5607 12.0908 27.9207 12.0119 28.2407 11.8935C28.5607 11.7751 28.8407 11.5777 29.0407 11.3804C29.2807 11.1436 29.4407 10.8673 29.5607 10.5516C29.6807 10.2358 29.7607 9.88059 29.7607 9.48592C29.7607 9.05176 29.6807 8.65709 29.5607 8.30188C29.4007 7.94667 29.2007 7.70985 28.9607 7.47305ZM27.7207 10.2358C27.5207 10.3937 27.2807 10.4726 27.0407 10.4726H26.1207V8.42026H27.0407C27.3607 8.42026 27.6007 8.49922 27.7607 8.65709C27.9207 8.81497 28.0407 9.05176 28.0407 9.40697C28.0007 9.80167 27.9207 10.0779 27.7207 10.2358Z" fill="#A0A0A0"/>
<path d="M35.6808 7.63083C35.4806 7.39401 35.2006 7.19667 34.8408 7.0388C34.5207 6.88092 34.1206 6.802 33.6407 6.802C33.1608 6.802 32.7206 6.88092 32.4007 7.0388C32.0407 7.19667 31.8007 7.39401 31.5607 7.67029C31.3607 7.90709 31.2007 8.22284 31.0807 8.49913C31.0007 8.81488 30.9207 9.13063 30.9207 9.44637V12.367C30.9207 12.7222 30.9607 13.0774 31.0807 13.4326C31.1607 13.7879 31.3207 14.0641 31.5607 14.3404C31.7607 14.6167 32.0407 14.814 32.4007 14.9324C32.7206 15.0903 33.1608 15.1692 33.6407 15.1692C34.0408 15.1692 34.4006 15.0903 34.7206 14.9719C35.0407 14.8535 35.3207 14.6562 35.5606 14.4588C35.8006 14.222 35.9608 13.9457 36.1206 13.63C36.2408 13.3142 36.3206 12.9195 36.3206 12.5249V9.44637C36.3206 9.13063 36.2808 8.81488 36.1607 8.49913C36.0806 8.14392 35.9207 7.86763 35.6808 7.63083ZM34.6008 12.6038C34.6008 12.8801 34.5207 13.0774 34.3208 13.2748C34.1206 13.4326 33.9207 13.5116 33.6807 13.5116C33.3206 13.5116 33.0807 13.3932 32.9606 13.1958C32.8007 12.9985 32.7206 12.7222 32.7206 12.4065V9.36742C32.7206 9.2885 32.7206 9.17009 32.7606 9.05167C32.8007 8.93329 32.8407 8.85434 32.9208 8.73592C33.0006 8.657 33.0807 8.57805 33.2008 8.49913C33.3206 8.45967 33.4808 8.42017 33.6407 8.42017C33.8006 8.42017 33.9607 8.45967 34.0806 8.53859C34.2007 8.61754 34.2808 8.69646 34.3606 8.77542C34.4406 8.85434 34.4807 8.97275 34.5207 9.09113C34.5608 9.20955 34.5608 9.2885 34.5608 9.36742V12.6038H34.6008Z" fill="#A0A0A0"/>
<path d="M39.8 9.05165C39.84 8.93323 39.8801 8.85431 39.9598 8.7359C40.0399 8.65698 40.12 8.57802 40.2398 8.4991C40.36 8.45964 40.5198 8.42015 40.68 8.42015C40.8399 8.42015 41.0001 8.45964 41.1199 8.4991C41.24 8.57802 41.3198 8.65698 41.4399 8.7359C41.52 8.81485 41.5601 8.93323 41.5998 9.01219C41.6398 9.1306 41.6799 9.20952 41.6799 9.28847L43.3198 8.81485C43.2801 8.53856 43.16 8.30177 43.0398 8.02548C42.92 7.78868 42.7201 7.55186 42.5199 7.35452C42.32 7.15719 42.04 6.99931 41.76 6.8809C41.4399 6.76248 41.1199 6.72302 40.7201 6.72302C40.2398 6.72302 39.8 6.80198 39.4799 6.95985C39.1198 7.11772 38.8799 7.31506 38.6399 7.59132C38.44 7.82814 38.2798 8.14389 38.16 8.42015C38.0799 8.7359 37.9998 9.05165 37.9998 9.36739V12.367C37.9998 12.7222 38.0399 13.0774 38.16 13.4326C38.2401 13.7878 38.4 14.0641 38.6399 14.3404C38.8398 14.6166 39.1198 14.814 39.4799 14.9324C39.84 15.0903 40.2398 15.1692 40.7201 15.1692C41.3999 15.1692 41.9599 14.9719 42.4398 14.6166C42.92 14.2614 43.2 13.7484 43.3198 13.1169L41.6799 12.6433C41.6398 12.9195 41.52 13.1169 41.3598 13.2747C41.1599 13.4326 40.96 13.5116 40.7201 13.5116C40.36 13.5116 40.12 13.3931 39.9999 13.1958C39.8801 12.9985 39.8 12.7222 39.8 12.4064V9.36739C39.7599 9.24898 39.8 9.17006 39.8 9.05165Z" fill="#A0A0A0"/>
<path d="M46.5998 9.05165C46.6398 8.93323 46.6795 8.85431 46.7596 8.7359C46.8397 8.65698 46.9198 8.57802 47.0396 8.4991C47.1598 8.45964 47.3196 8.42015 47.4798 8.42015C47.6397 8.42015 47.7995 8.45964 47.9197 8.4991C48.0398 8.57802 48.1196 8.65698 48.2397 8.7359C48.3198 8.81485 48.3595 8.93323 48.3996 9.01219C48.4396 9.1306 48.4797 9.20952 48.4797 9.28847L50.1196 8.81485C50.0796 8.53856 49.9598 8.30177 49.8396 8.02548C49.7198 7.78868 49.5196 7.55186 49.3197 7.35452C49.1198 7.15719 48.8398 6.99931 48.5598 6.8809C48.2397 6.76248 47.9197 6.72302 47.5195 6.72302C47.0396 6.72302 46.5998 6.80198 46.2797 6.95985C45.9196 7.11772 45.6797 7.31506 45.4397 7.59132C45.2398 7.82814 45.0796 8.14389 44.9598 8.42015C44.8797 8.7359 44.7996 9.05165 44.7996 9.36739V12.367C44.7996 12.7222 44.8397 13.0774 44.9598 13.4326C45.0396 13.7878 45.1998 14.0641 45.4397 14.3404C45.6396 14.6166 45.9196 14.814 46.2797 14.9324C46.5998 15.0903 47.0396 15.1692 47.5195 15.1692C48.1997 15.1692 48.7597 14.9719 49.2396 14.6166C49.7198 14.2614 49.9998 13.7484 50.1196 13.1169L48.4797 12.6433C48.4396 12.9195 48.3595 13.1169 48.1596 13.2747C47.9597 13.4326 47.7598 13.5116 47.5195 13.5116C47.1598 13.5116 46.9198 13.3931 46.7997 13.1958C46.6795 12.9985 46.5998 12.7222 46.5998 12.4064V9.36739C46.5197 9.24898 46.5597 9.17006 46.5998 9.05165Z" fill="#A0A0A0"/>
<path d="M51.7603 15.0904H56.6004V13.4722H53.4804V11.7356H56.2003V10.1569H53.4804V8.42026H56.6004V6.84155H51.7603V15.0904Z" fill="#A0A0A0"/>
<path d="M57.5603 8.42026H59.3601V15.0904H61.0802V8.42026H62.8803V6.84155H57.5603V8.42026Z" fill="#A0A0A0"/>
<path d="M68.4401 6.84155L66.04 11.6172V6.84155H64.2799V15.0904H65.9201L68.2399 10.591H68.28V15.0904H70V6.84155H68.4401Z" fill="#A0A0A0"/>
<path d="M11.24 5.81533L1.76 5.30225C0.639999 6.92045 0 8.89386 0 10.9857C0 11.5382 0.04 12.0908 0.16 12.6433L11.36 6.17054C11.28 6.05216 11.28 5.93374 11.24 5.81533Z" fill="#A0A0A0"/>
<path d="M13.7602 6.40728L20.3202 12.5249C20.4002 12.0118 20.4402 11.4987 20.4402 10.9461C20.4402 8.77537 19.7602 6.80195 18.5602 5.14429L14.0002 5.73632C14.0002 5.97312 13.8802 6.20995 13.7602 6.40728Z" fill="#A0A0A0"/>
<path d="M11.6008 6.56531L0.400826 13.8274C1.16082 16.3534 2.92082 18.4847 5.24081 19.7476L11.8008 6.72318C11.7208 6.72318 11.6808 6.64423 11.6008 6.56531Z" fill="#A0A0A0"/>
<path d="M12.2795 6.95972L6.31955 20.3C7.51954 20.7736 8.83955 21.0499 10.1995 21.0499C11.5596 21.0499 12.8395 20.7736 13.9996 20.3394L12.5195 7.03867C12.4395 6.99921 12.3595 6.99921 12.2795 6.95972Z" fill="#A0A0A0"/>
<path d="M13.0405 6.96L15.1205 19.8266C17.4405 18.5636 19.2005 16.4323 20.0005 13.8669L13.4005 6.80212C13.2805 6.88104 13.1605 6.92051 13.0405 6.96Z" fill="#A0A0A0"/>
<path d="M11.7599 4.59174L9.59985 0.921204C6.79985 1.07908 4.31986 2.34206 2.59985 4.27599L11.2798 5.30216C11.3598 5.02591 11.5198 4.78908 11.7599 4.59174Z" fill="#A0A0A0"/>
<path d="M12.64 4.31545C13.2 4.31545 13.68 4.67066 13.88 5.14429L17.76 4.23653C16.04 2.34206 13.6 1.07908 10.88 0.921204L12.32 4.35495C12.4 4.31545 12.52 4.31545 12.64 4.31545Z" fill="#A0A0A0"/>
</svg>
