<svg width="68" height="16" viewBox="0 0 68 16" fill="none" xmlns="http://www.w3.org/2000/svg">
<g opacity="0.5">
<path fill-rule="evenodd" clip-rule="evenodd" d="M12.2656 5.02174C12.3479 5.43389 12.4441 5.75086 12.5569 5.97377C12.6682 6.1934 12.8579 6.30349 13.1249 6.30349L12.4169 8.04848C12.1381 8.73086 11.8426 9.76749 11.5226 11.151C11.2079 12.5404 11.1079 13.5277 11.2237 14.1193C11.3378 14.7032 11.6063 15.085 12.0247 15.2681C12.4413 15.4468 12.8411 15.5376 13.2278 15.5376C13.8172 15.5376 14.4961 15.4711 15.2638 15.331C16.0294 15.1944 16.6064 15.0513 16.9947 14.9029C17.1769 14.8347 17.2904 14.7251 17.3453 14.5808C17.3956 14.4382 17.3773 14.1406 17.2892 13.6905C17.242 13.4522 17.137 13.3329 16.9655 13.3329C16.7295 13.3329 16.4583 13.3857 16.1555 13.4927C15.8516 13.597 15.5437 13.682 15.2325 13.7443C14.9199 13.8117 14.4278 13.8426 13.7542 13.8426C13.5832 13.8426 13.4698 13.8225 13.4125 13.7819C13.3568 13.7443 13.318 13.6733 13.2976 13.5715C13.2438 13.2981 13.2976 12.8217 13.4571 12.1386C13.6136 11.4537 13.7752 10.89 13.9356 10.4422L15.3058 10.4076C15.8872 10.3933 16.2746 10.3775 16.4708 10.3536C16.6672 10.3311 16.7923 10.2829 16.845 10.2091C16.8974 10.1321 16.9164 9.9953 16.8956 9.79532C16.8801 9.61001 16.878 9.47281 16.8849 9.3818C16.887 9.35887 16.892 9.32631 16.9 9.28879C16.9065 9.24444 16.9097 9.20836 16.9032 9.17589C16.8517 8.91504 16.5069 8.7833 15.871 8.7833C15.3793 8.7833 14.8353 8.81714 14.2372 8.88898C14.4051 8.33049 14.642 7.66255 14.9492 6.88612C15.099 6.49498 15.2219 6.23365 15.3142 6.0983C15.4062 5.96094 15.536 5.87835 15.704 5.84219C15.8722 5.80731 16.1956 5.79079 16.6797 5.79079C16.8118 5.79079 17.2381 5.81926 17.964 5.87835C17.9907 5.87835 18.0408 5.88252 18.1147 5.8879C18.1864 5.89351 18.242 5.89648 18.2752 5.89648C18.4871 5.89648 18.5784 5.828 18.5506 5.68912C18.5321 5.59658 18.4414 5.41416 18.2785 5.14442C17.9882 4.66058 17.744 4.35532 17.5407 4.22309C17.3378 4.09135 17.0452 4.02576 16.6638 4.02576C15.8165 4.02576 14.8528 4.09135 13.7724 4.22309C12.6891 4.3554 12.1879 4.61977 12.2656 5.02174Z" fill="#A0A0A0"/>
<path fill-rule="evenodd" clip-rule="evenodd" d="M52.598 14.4878C52.7782 14.21 52.9286 13.993 53.048 13.8383C53.1728 13.679 53.41 13.3782 53.7531 12.9324C54.0988 12.4886 54.4398 12.0502 54.7761 11.6226C55.1098 11.1955 55.4308 10.7982 55.7325 10.4264C56.0394 10.057 56.3786 9.65552 56.7533 9.22332L56.2994 11.2104C56.1352 11.9555 56.029 12.4504 55.9823 12.6945C55.9381 12.9378 55.9068 13.1861 55.8899 13.4357C55.8734 13.6887 55.8829 13.9123 55.9212 14.1086C55.9701 14.3615 56.1123 14.5963 56.339 14.8093C56.5683 15.0266 56.8162 15.197 57.0881 15.3263C57.361 15.4553 57.5681 15.5195 57.7136 15.5195C57.9088 15.5195 58.0346 15.3552 58.0849 15.0235C58.1342 14.6927 58.1927 14.0064 58.2536 12.964C58.3204 11.9252 58.4252 10.9091 58.5742 9.92013C58.7214 8.92896 58.9662 7.90083 59.3124 6.83597C60.0379 6.20964 60.3705 5.74593 60.3121 5.44195C60.2738 5.2479 60.1449 5.0128 59.9267 4.73496C59.7051 4.45768 59.4919 4.31928 59.2854 4.31928C59.0882 4.31928 58.6899 4.61035 58.0848 5.19498C57.4796 5.78065 56.8139 6.47762 56.0837 7.29014C55.3573 8.1041 54.6909 8.86826 54.0852 9.58672C53.4777 10.3019 53.111 10.7537 52.9782 10.934C53.186 9.95469 53.3728 9.14963 53.5381 8.52146C53.7073 7.89497 53.882 7.28934 54.0609 6.69901C54.2423 6.11037 54.3527 5.72581 54.4005 5.54563C54.4444 5.36385 54.4555 5.21663 54.4339 5.10477C54.4161 5.01272 54.308 4.876 54.1156 4.69559C53.9239 4.51445 53.7152 4.35087 53.4921 4.20389C53.2708 4.0574 53.1159 3.98242 53.0264 3.98242C52.8695 3.98242 52.7269 4.13461 52.5976 4.43603C52.468 4.73825 52.331 5.18367 52.1941 5.77239C52.0543 6.35871 51.9799 6.66622 51.973 6.69115C51.2234 9.55368 50.759 11.481 50.5771 12.4712C50.3964 13.4603 50.3225 14.0477 50.3583 14.2395C50.3883 14.3788 50.5771 14.5778 50.9338 14.8264C51.286 15.0747 51.5761 15.1992 51.8038 15.1992C51.9519 15.1992 52.075 15.151 52.176 15.0527C52.2743 14.9544 52.4149 14.7668 52.598 14.4878Z" fill="#A0A0A0"/>
<path fill-rule="evenodd" clip-rule="evenodd" d="M67.6726 5.2665C67.4773 5.0929 67.2719 4.93341 67.0516 4.789C66.8309 4.64435 66.6939 4.5721 66.637 4.5721C66.4616 4.5721 66.254 4.84497 66.0193 5.38341C65.7845 5.92506 65.5687 6.51001 65.376 7.14011C65.181 7.77044 65.0451 8.2303 64.9735 8.51384L64.432 8.67493C64.2561 8.73475 63.9999 8.79144 63.6645 8.85454C63.3333 8.91821 63.0908 8.9498 62.9447 8.9498C62.7359 8.9498 62.6062 8.81838 62.5567 8.56387C62.5247 8.39957 62.5707 8.09222 62.6878 7.64207C62.8095 7.18966 62.9373 6.79307 63.0696 6.44819C63.1758 6.20194 63.2653 5.98648 63.3474 5.81377C63.4233 5.63664 63.4802 5.50136 63.5104 5.40298C63.5428 5.30483 63.5505 5.21286 63.535 5.13492C63.52 5.05802 63.4226 4.92347 63.2387 4.73263C63.0586 4.54363 62.8662 4.36875 62.6608 4.21415C62.4578 4.06028 62.3121 3.98218 62.2259 3.98218C62.0798 3.98218 61.856 4.31904 61.5534 4.98906C61.2485 5.65901 60.9878 6.38228 60.7729 7.16416C60.5538 7.94268 60.4832 8.50814 60.5498 8.85142C60.6219 9.22083 60.8366 9.61157 61.1913 10.0322C61.5488 10.4525 61.8958 10.6622 62.2318 10.6622C62.4124 10.6622 62.7901 10.5854 63.3674 10.4344C63.9426 10.285 64.382 10.1575 64.6886 10.0537C64.635 10.2303 64.5335 10.6529 64.3852 11.3149C64.2351 11.9772 64.1093 12.5996 64.0093 13.178C63.9063 13.7575 63.8718 14.137 63.9063 14.313C63.9569 14.569 64.1916 14.7925 64.6073 14.9862C64.8178 15.0848 65.0216 15.1981 65.2131 15.3251C65.4087 15.4494 65.5321 15.5137 65.5868 15.5137C65.7497 15.5137 65.8664 15.4021 65.9284 15.1823C65.9898 14.9569 66.0355 14.5988 66.0658 14.1078C66.095 13.6158 66.111 13.3501 66.1162 13.3026C66.2541 12.196 66.3809 11.323 66.4931 10.6802C66.6056 10.0388 66.7305 9.47935 66.8713 8.99495C67.0111 8.51384 67.2262 7.85568 67.5138 7.02592C67.6132 6.73188 67.7248 6.4514 67.8388 6.18687C67.9553 5.92498 68.008 5.76581 67.999 5.71137C67.9736 5.59237 67.8652 5.44283 67.6726 5.2665Z" fill="#A0A0A0"/>
<path fill-rule="evenodd" clip-rule="evenodd" d="M11.5325 3.14647C11.5435 3.12073 11.5554 3.08345 11.5653 3.06517C11.8068 2.37421 12.1881 2.84634 12.396 2.81034C12.7237 2.70826 12.9112 2.41438 12.9803 1.99894C13.023 1.75021 13.0482 1.23975 12.9157 1.0275C12.836 0.899367 12.5549 0.684952 12.0604 0.589612C10.9714 0.377603 9.04947 0.380409 7.38698 0.577905C6.15204 0.72761 4.5324 1.07954 2.38285 1.8753C1.64823 2.14729 0.49973 2.29306 0.159569 3.17855C-0.115981 3.89364 -0.0113904 4.27893 0.295346 4.46007C0.971428 4.85802 2.63049 4.2669 3.38006 4.02827C3.40077 4.04503 3.42268 4.06179 3.4541 4.08624C3.17903 5.6464 2.57132 7.52233 2.38548 9.24952C2.00422 10.3772 1.26993 13.1759 1.88276 14.2828C3.14721 15.055 3.91884 12.8659 3.82337 12.7921C4.14354 11.8278 5.14587 7.60324 5.26437 6.46036C5.29268 6.17266 5.31683 5.94189 5.36121 5.64336C5.44669 5.0629 5.45732 4.48532 5.55496 3.93999C5.58174 3.78795 5.66874 3.66238 5.79292 3.56095C6.34331 3.10839 7.6347 3.10157 7.85452 3.10157C8.02556 3.06003 8.50141 2.98699 8.88059 2.8651C9.04812 2.81186 9.04955 3.05466 9.00422 3.33619C8.9588 3.61588 8.8678 3.93461 8.84725 4.03332C8.79935 4.2677 8.75281 4.46841 8.69764 4.71554C8.62871 5.02513 8.48614 5.65683 8.15933 7.0664C7.41896 10.4683 6.84651 13.4942 7.47677 15.1365C7.62822 15.3587 8.14158 15.5962 8.29007 15.5299C8.67005 15.4594 8.94328 15.2935 9.14055 15.0682C9.48567 14.6743 9.59338 14.0968 9.62217 13.5263C9.67414 12.4815 9.82143 10.8814 10.0596 9.30244C10.2177 8.25458 10.7172 5.9228 11.1266 4.40578C11.2824 3.82973 11.4307 3.37901 11.5325 3.14647Z" fill="#A0A0A0"/>
<path fill-rule="evenodd" clip-rule="evenodd" d="M21.7501 15.5377C21.8888 15.5377 21.9813 15.433 22.026 15.2245C22.0677 15.0161 22.1642 14.4052 22.3111 13.3945C22.4586 12.3871 22.6589 11.3017 22.9128 10.1365C23.1665 8.97362 23.5367 7.59524 24.0263 5.99731C24.2118 5.94615 24.5637 5.90935 25.0768 5.8808C25.5905 5.85386 25.9693 5.80406 26.2129 5.73366C26.4554 5.65885 26.5524 5.50449 26.5046 5.26779C26.4726 5.10012 26.3745 4.9116 26.2112 4.71266C26.0473 4.51012 25.8248 4.33812 25.5401 4.19723C25.2581 4.05354 24.9401 3.98218 24.5886 3.98218C24.4974 3.98218 24.3576 3.99284 24.1704 4.01561C23.9633 4.03799 23.6466 4.05956 23.2235 4.08417C22.7958 4.10622 22.4779 4.12844 22.2674 4.14728C21.0579 4.23837 20.2107 4.33996 19.721 4.45294C19.2326 4.5636 19.0125 4.75284 19.0649 5.02178C19.2232 5.8266 19.5556 6.2276 20.0672 6.2276C20.1469 6.2276 20.7172 6.18326 21.7772 6.09513C21.6527 6.56967 21.4749 7.27578 21.2429 8.21771C21.0142 9.16326 20.8083 10.0442 20.6278 10.8639C20.4418 11.6828 20.2899 12.4435 20.1677 13.1435C20.0417 13.8469 19.9998 14.2911 20.0371 14.4811C20.0728 14.661 20.2022 14.8282 20.4268 14.994C20.6533 15.1548 20.9013 15.2855 21.1743 15.3866C21.448 15.4879 21.6419 15.5377 21.7501 15.5377Z" fill="#A0A0A0"/>
<path fill-rule="evenodd" clip-rule="evenodd" d="M39.8894 9.51198C39.7591 10.2776 39.5439 10.9897 39.2474 11.6588C38.947 12.3278 38.6183 12.8644 38.2603 13.2711C37.9008 13.6804 37.5746 13.8853 37.2828 13.8853C37.1585 13.8853 37.0272 13.7938 36.8857 13.6091C36.7466 13.4247 36.645 13.174 36.5815 12.8603C36.4366 12.1161 36.4282 11.3351 36.5571 10.5307C36.6851 9.72327 36.8979 8.98549 37.1925 8.31001C37.4906 7.6395 37.8176 7.09729 38.174 6.68401C38.5307 6.27106 38.8435 6.06539 39.1153 6.06539C39.4585 6.06539 39.7154 6.50472 39.8892 7.38571C40.0172 8.04075 40.0174 8.74934 39.8894 9.51198ZM41.4504 6.04093C41.2581 5.60272 41.0612 5.26562 40.8668 5.02867C40.6719 4.79477 40.5203 4.67634 40.4212 4.67634C40.3644 4.67634 40.2443 4.72197 40.0649 4.81867C39.8853 4.91168 39.755 4.98634 39.6805 5.03886C39.4625 4.78331 39.2074 4.54339 38.915 4.31759C38.6254 4.09331 38.3878 3.98218 38.2111 3.98218C37.9393 3.98218 37.5487 4.21888 37.0466 4.69454C36.5445 5.1706 36.0607 5.8128 35.5927 6.6165C35.1267 7.4246 34.7824 8.34898 34.5591 9.39291C34.3345 10.4384 34.3318 11.5083 34.5471 12.5996C34.6737 13.252 34.9155 13.7997 35.264 14.2426C35.6136 14.6866 36.003 15.0112 36.4283 15.2206C36.8537 15.433 37.2455 15.5377 37.603 15.5377C38.4453 15.5377 39.2546 15.1597 40.0306 14.405C40.8043 13.6481 41.376 12.65 41.7444 11.4132C42.1135 10.1791 42.1702 8.89576 41.9095 7.56886C41.7958 6.99136 41.6438 6.48083 41.4504 6.04093ZM48.1226 7.37497C47.8779 7.70325 47.5448 8.00819 47.122 8.29269C46.701 8.58039 46.2591 8.80555 45.7957 8.96688C46.048 7.56132 46.1461 6.70278 46.0862 6.39511C46.0519 6.22231 45.9357 6.05184 45.7406 5.88345C46.1364 5.76189 46.5784 5.70239 47.0669 5.70239C47.4531 5.70239 47.7628 5.77463 47.9968 5.92763C48.2278 6.07814 48.3645 6.26617 48.4082 6.49189C48.461 6.7557 48.3644 7.0499 48.1226 7.37497ZM47.2935 12.2084C47.0253 12.5861 46.6461 12.8961 46.1587 13.1379C45.6699 13.3845 45.1583 13.504 44.6251 13.504C44.8513 12.7357 45.0266 12.1428 45.1539 11.7332C45.2772 11.3202 45.3864 10.9145 45.4736 10.5023C45.8091 10.4039 46.1177 10.3536 46.4007 10.3536C47.0984 10.3536 47.4953 10.6039 47.5926 11.0947C47.6627 11.4574 47.5646 11.83 47.2935 12.2084ZM49.829 8.25676C50.2013 7.67037 50.3271 7.05808 50.2013 6.42542C50.0613 5.70407 49.6514 5.11816 48.9709 4.66479C48.295 4.21079 47.4616 3.98226 46.4786 3.98226C46.0502 3.98226 45.4643 4.04849 44.727 4.18032C44.0191 4.30308 43.4942 4.42769 43.1489 4.55157C42.8067 4.67642 42.6614 4.87175 42.7155 5.14005C42.7708 5.42254 42.9083 5.70407 43.1315 5.98873C43.3527 6.27034 43.6463 6.44282 44.0141 6.50849C43.8626 7.82425 43.6814 8.94275 43.4619 9.86648C43.2428 10.792 43.0348 11.5129 42.8352 12.0331C42.6365 12.5494 42.4712 12.9992 42.3395 13.3757C42.2065 13.7502 42.1664 14.0746 42.2209 14.3495C42.2358 14.4263 42.3474 14.5639 42.5567 14.7595C42.7661 14.9518 42.9906 15.1313 43.2287 15.2935C43.4675 15.4543 43.6395 15.5378 43.7473 15.5378C43.9061 15.5378 44.0253 15.4662 44.1083 15.3244C44.193 15.1802 44.284 14.9234 44.3812 14.5455C44.9524 15.2095 45.5065 15.5378 46.0472 15.5378C46.5609 15.5378 47.1189 15.2977 47.7184 14.8092C48.3164 14.3212 48.7986 13.7377 49.1619 13.0623C49.5248 12.3824 49.6562 11.7818 49.5533 11.2633C49.4995 10.9884 49.3701 10.7 49.1666 10.4039C48.9638 10.1045 48.6734 9.84363 48.2951 9.61334C48.9431 9.29131 49.4542 8.84212 49.829 8.25676ZM31.8593 7.7625C31.5419 8.17794 31.1254 8.56876 30.6139 8.93794C30.0966 9.30342 29.6149 9.55817 29.1616 9.69464C29.2214 9.22099 29.3427 8.54503 29.5281 7.66275C29.6373 7.13786 29.7219 6.7893 29.7834 6.61353C29.8387 6.43568 29.933 6.31139 30.0575 6.23907C30.1847 6.1649 30.4001 6.11799 30.709 6.09562C30.7891 6.08543 30.912 6.07822 31.0767 6.07822C31.7769 6.07822 32.1665 6.28838 32.2495 6.71007C32.3073 6.99826 32.1768 7.35059 31.8593 7.7625ZM33.635 5.35711C33.2966 4.96324 32.8408 4.63408 32.2563 4.3726C31.6774 4.11128 31.0139 3.98226 30.2641 3.98226C29.8349 3.98226 29.3835 4.02893 28.9064 4.12242C28.4279 4.21263 28.0302 4.35143 27.7103 4.53064C27.3899 4.71202 27.252 4.91818 27.2975 5.15561C27.443 5.8881 27.7089 6.34611 28.1014 6.52372C27.7381 8.05879 27.4464 9.24617 27.2332 10.0839C27.0205 10.9238 26.7983 11.7682 26.5706 12.625C26.3417 13.4767 26.208 14.0107 26.1676 14.2171C26.131 14.426 26.1227 14.5983 26.1478 14.7299C26.1879 14.9318 26.2726 15.0635 26.4064 15.1274C26.536 15.1919 26.7564 15.2565 27.0617 15.3241C27.2162 15.3597 27.3821 15.4036 27.5523 15.4581C27.7216 15.5103 27.8391 15.5376 27.9037 15.5376C28.0922 15.5376 28.2345 15.4328 28.326 15.2273C28.4144 15.0215 28.4906 14.7045 28.5528 14.281C28.6135 13.8562 28.6937 13.2866 28.7971 12.5748C28.8999 11.8652 29.0366 11.1742 29.1992 10.5021C29.6959 11.2401 30.1053 11.6088 30.4267 11.6088C30.8055 11.6088 31.3312 11.2927 31.9975 10.6597C32.6666 10.0266 33.2343 9.30791 33.7022 8.50245C34.1696 7.69715 34.3553 7.04509 34.2549 6.53984C34.1803 6.14958 33.9719 5.75491 33.635 5.35711Z" fill="#A0A0A0"/>
</g>
</svg>
