<svg width="55" height="42" viewBox="0 0 55 42" fill="none" xmlns="http://www.w3.org/2000/svg">
<g opacity="0.5">
<path fill-rule="evenodd" clip-rule="evenodd" d="M20.9896 41.2195C15.0798 41.2195 11.3124 38.4225 11.1388 33.9223C11.1133 33.1485 11.2321 32.3766 11.4892 31.647L11.5226 31.5494H11.4192C10.9528 31.6174 10.4822 31.6523 10.011 31.6538C4.48161 31.6538 7.56092e-05 26.9921 7.56092e-05 21.2634C-0.00690692 19.7084 0.330751 18.1716 0.988359 16.7652C1.64597 15.3588 2.60689 14.1185 3.80087 13.1349C4.78113 12.1951 5.94175 11.4677 7.21125 10.9975C8.04675 10.526 8.94612 10.1801 9.88082 9.97095H9.92086V9.93056C10.655 5.05681 14.7995 1.35438 19.9951 0.910087C20.6589 0.817538 21.3274 0.764714 21.9973 0.751892H22.5045C29.1156 0.751892 31.5233 5.35375 31.5803 5.46253L31.5811 5.46408L31.6144 5.5314L31.6745 5.48428C31.6745 5.48428 33.5465 4.04706 37.5242 2.70072C39.5958 1.98991 41.7556 1.57414 43.9412 1.46545H44.5518C47.7687 1.46545 50.6151 2.58965 52.5605 4.62599C53.3843 5.47952 54.0251 6.49494 54.443 7.60905C54.861 8.72315 55.0471 9.91209 54.9898 11.1019C54.8831 14.185 53.8319 16.8844 51.9532 18.9073L51.9165 18.9443L51.9465 18.9881C53.2197 20.9546 53.8637 23.268 53.7914 25.6155C53.7192 27.9631 52.9343 30.2317 51.5428 32.1149C50.6693 33.4765 49.5223 34.6381 48.1758 35.5245C46.8288 36.5751 45.2692 37.314 43.6075 37.6887C42.4834 38.0327 41.3151 38.2074 40.1404 38.2071C39.6944 38.2053 39.2488 38.1795 38.8056 38.1297H38.562C36.2134 38.1357 33.9169 37.4324 31.9682 36.1101L31.9214 36.0765L31.8847 36.1236C31.808 36.2245 31.728 36.322 31.648 36.4196L31.6478 36.4198C30.2983 38.2611 28.3859 39.6035 26.2052 40.24C25.3953 40.5693 24.5479 40.7955 23.6825 40.9132C22.7993 41.1181 21.8958 41.2208 20.9896 41.2195ZM12.4202 17.4129C12.1132 18.1836 11.8128 18.9241 11.5158 19.6343C8.73616 26.2314 5.81966 26.1506 4.71846 25.777C3.04998 25.2048 2.20573 22.4448 3.09002 19.8093C4.27798 16.2752 7.05099 15.2419 8.35575 15.7299C9.74726 16.255 9.74726 18.4697 8.70613 20.0349C8.23895 20.735 6.98092 20.4388 6.87414 20.1931C6.82324 20.0759 6.90046 19.9864 7.06173 19.7993C7.23879 19.5939 7.51718 19.2709 7.83852 18.665C8.45252 17.5071 8.74283 16.5007 8.29568 16.2045C7.84853 15.9083 6.11331 16.2045 4.83192 19.7555C3.55052 23.3065 4.25796 25.1005 4.93536 25.299C5.47595 25.4572 6.93754 25.4875 8.85629 21.5091C10.334 18.4452 11.5979 14.5747 12.3646 12.227C12.5935 11.5262 12.778 10.9612 12.9107 10.5937C13.1685 9.95724 13.5916 9.40264 14.1354 8.98814C14.7427 8.51019 15.5235 8.20053 15.6604 8.53375C15.6614 8.83938 15.5893 9.14075 15.4501 9.41224L15.4452 9.43306C15.1093 10.8559 14.3883 13.9103 14.2588 15.5415C14.0886 17.7192 14.1554 18.7962 15.2165 17.4129C15.7338 16.7397 16.578 15.0568 17.4022 13.2897C17.8936 11.3091 18.5123 9.36292 19.2543 7.46341C19.4975 6.92752 19.8739 6.46407 20.3468 6.11793C20.8198 5.7718 21.3733 5.5547 21.9539 5.48766C22.5561 5.42691 22.2453 6.22405 21.8209 7.31269L21.8206 7.31356C21.7748 7.43104 21.7277 7.55191 21.6802 7.67546C21.5984 7.89746 21.4476 8.27121 21.2556 8.74685L21.2556 8.74692C20.6647 10.2112 19.6841 12.6412 19.1275 14.5822C17.2354 21.1658 17.6625 25.2216 17.8294 25.8275C18.073 26.706 17.8294 26.7767 17.4423 26.2852C17.0552 25.7938 15.627 23.8349 16.3077 18.803C16.4178 17.975 16.558 17.1503 16.7182 16.3392C15.994 17.736 15.0697 19.2641 14.2054 19.8396C12.9708 20.6609 12.3901 19.2506 12.4202 17.4129ZM24.4132 10.974C24.7094 11.1276 24.9588 11.3592 25.1351 11.6443C25.3113 11.9293 25.4078 12.2571 25.4143 12.593C25.6267 12.7586 25.8115 12.9574 25.9616 13.182C26.1045 13.4264 25.8639 13.9032 25.5477 14.5301C25.4284 14.7665 25.2983 15.0244 25.174 15.2991C24.4699 16.8844 23.9761 18.0894 24.4332 18.1029C24.9093 18.1182 25.491 17.2982 25.7775 16.8944C25.8685 16.7661 25.9297 16.6798 25.9482 16.6757C26.025 16.6589 26.7524 17.0594 26.2352 17.8201C25.718 18.5808 24.5133 18.6751 23.926 18.4529C23.7718 18.3979 23.6338 18.3046 23.5248 18.1817C23.4157 18.0588 23.3391 17.9101 23.302 17.7494C22.1908 19.1934 20.8226 20.2032 19.6847 20.2032C18.4901 20.2032 18.5135 18.9645 18.9106 17.9649C19.3744 16.7935 20.8427 17.3624 20.8427 17.3624C20.8427 17.3624 19.8783 19.5569 20.6157 19.4256C20.9227 19.3718 22.1975 18.7525 23.4789 15.9117C23.5389 15.7232 23.589 15.6054 23.589 15.6054C23.2124 16.203 22.6468 16.6549 21.9839 16.8878C20.8727 17.2816 19.1441 16.4098 20.0985 13.6835C21.0529 10.9572 23.5022 10.4186 24.4132 10.974ZM21.203 15.7804C21.2564 16.3997 21.6202 16.7532 22.5078 16.117C23.1952 15.6088 23.8426 14.6091 24.2263 13.9831L24.3164 13.7104C24.8737 11.9535 24.4799 11.4822 24.1262 11.3543C23.6791 11.1827 22.8682 11.6606 22.124 12.8521C21.5571 13.7248 21.2385 14.7377 21.203 15.7804ZM48.8698 12.0208C48.7755 11.9248 48.6547 11.8596 48.5232 11.8338C48.3916 11.808 48.2554 11.8227 48.1323 11.876C48.1145 11.8931 48.0904 11.9802 48.0529 12.116C47.9501 12.4884 47.7462 13.2272 47.2914 13.8956C46.6707 14.8077 46.0734 14.7471 45.9199 14.4812C45.7664 14.2153 45.7464 13.6128 46.2536 12.3203C46.4671 11.7763 46.7297 11.1744 46.9622 10.6415L46.9622 10.6414C47.2821 9.90823 47.545 9.30545 47.545 9.16317C47.545 8.91746 47.0945 9.01507 46.8776 9.06556C46.6816 9.09872 46.4967 9.18031 46.3395 9.30305C46.1823 9.4258 46.0576 9.58588 45.9766 9.76902C45.4924 10.7812 45.0971 11.8342 44.7954 12.9161C44.7664 13.0471 44.7452 13.1797 44.732 13.3133C44.5601 13.6848 44.3162 14.0179 44.0145 14.2927C43.2971 14.801 43.0635 14.2591 43.207 13.4008C43.392 12.5703 43.634 11.7538 43.9311 10.9572C44.1951 10.1841 44.4974 9.58633 44.7123 9.1613C44.9184 8.75364 45.0442 8.50486 44.9789 8.41258C44.8454 8.22409 44.1013 8.42941 43.6441 8.74917C43.1869 9.06892 42.673 10.3244 42.1592 11.903C42.0857 12.1352 42.0257 12.354 41.9823 12.5761C41.7654 13.182 41.2615 14.4509 40.781 14.5788C39.9901 14.7922 40.61 13.0628 41.0705 11.778C41.1113 11.6642 41.1509 11.5538 41.1881 11.4486C41.3955 10.8631 41.581 10.4381 41.715 10.1309L41.715 10.1308C41.9239 9.65222 42.0079 9.4597 41.8555 9.39204C41.6052 9.28097 40.8277 9.50648 40.5407 9.80604C40.2538 10.1056 39.8733 11.1221 39.5163 12.2698C39.3725 12.707 39.2752 13.1583 39.226 13.6162C39.0489 14.0807 38.7557 14.4911 38.375 14.8077C37.6609 15.3159 37.4273 14.774 37.5708 13.9157C37.7618 13.0784 38.0093 12.2552 38.3116 11.4519C38.5768 10.6804 38.8792 10.0836 39.0945 9.6587C39.3018 9.24949 39.4283 8.99984 39.3628 8.90736C39.2293 8.71887 38.4852 8.92419 38.028 9.24395C37.5708 9.5637 37.0569 10.8192 36.5431 12.3977C36.4452 12.6923 36.3694 12.9938 36.3161 13.2998C36.0725 13.8181 35.4886 14.9457 34.8312 15.4741C34.314 15.8915 33.76 15.7737 34.077 14.6057C34.4107 13.3738 34.5609 12.768 34.3073 12.4853C34.0537 12.2025 33.6733 12.4078 33.3062 12.6737C33.4675 12.4676 33.639 12.2699 33.8201 12.0814C33.9363 11.9613 34.0592 11.826 34.184 11.6886C34.6436 11.1827 35.1296 10.6477 35.4052 10.735C35.7555 10.8461 35.1582 12.0174 35.1582 12.0174C35.5553 12.0367 35.95 11.9459 36.2995 11.7549C36.6832 11.4755 37.0269 9.90702 36.3428 9.7118C35.839 9.56707 35.2783 9.74209 34.304 10.7653C33.7101 11.3878 33.174 12.0638 32.7022 12.7848C32.799 12.5122 32.9058 12.2328 33.0359 11.9535C33.2988 11.3088 33.5484 10.8058 33.7352 10.4293C33.9776 9.94085 34.1143 9.66547 34.037 9.57043C33.9002 9.40214 33.1594 9.57043 32.7022 9.90702C32.245 10.2436 31.7545 11.489 31.2173 13.0608C31.0371 13.5825 30.8836 14.1143 30.7568 14.6024C30.2886 15.2679 29.7781 15.902 29.2284 16.5007C28.1473 17.5643 27.56 17.2446 28.0738 16.255C28.2194 15.9804 28.4908 15.6458 28.8055 15.2578C29.3856 14.5427 30.1128 13.6463 30.4698 12.6098C31.1872 10.5331 29.0583 9.71517 27.7702 10.3951C27.006 10.8023 26.5522 11.4351 26.4988 11.9602C26.4575 12.1955 26.5091 12.4378 26.6425 12.6353C26.776 12.8327 26.9807 12.9698 27.2129 13.0171C27.2284 13.0171 27.2841 12.904 27.3711 12.7275C27.7158 12.028 28.5518 10.3319 29.3219 10.7216C29.8992 11.0144 29.0983 12.4651 28.1873 13.5152C26.6957 15.2251 26.0216 16.7464 27.3431 17.4869C28.2908 18.0187 29.5321 16.9854 30.4398 15.9252C30.383 16.1911 30.3396 16.4098 30.313 16.5579C30.2062 17.1066 30.4664 17.046 30.7167 16.9147C30.7658 16.889 30.8278 16.8615 30.8966 16.8311L30.8966 16.831C31.1785 16.7062 31.5752 16.5305 31.6744 16.2113C31.7332 16.0222 31.8063 15.7538 31.8946 15.4301C31.9917 15.0738 32.1071 14.6503 32.2417 14.1917C32.3044 14.09 32.3715 13.9861 32.4413 13.8781L32.4886 13.8047C32.5476 13.7132 32.6389 13.6403 32.728 13.5693C32.7701 13.5357 32.8116 13.5026 32.849 13.4681C33.1093 13.2695 33.2762 13.1854 32.9992 14.2254C32.502 16.0733 33.0593 16.4738 33.9769 16.2449C34.9513 16.0127 35.8223 15.0568 36.3128 14.4173C36.4897 15.2991 37.1571 15.6155 37.9246 15.427C38.4741 15.2396 38.9538 14.8873 39.2994 14.4173C39.3499 14.6184 39.4624 14.7982 39.6207 14.9307C39.7791 15.0631 39.975 15.1415 40.1803 15.1544C40.9312 15.2587 41.5618 14.4274 41.9122 13.8316C41.9218 14.0243 41.9755 14.2121 42.0691 14.3803C42.1628 14.5486 42.2938 14.6926 42.4519 14.8012C42.6099 14.9098 42.7908 14.98 42.9803 15.0062C43.1698 15.0324 43.3627 15.014 43.544 14.9524C44.029 14.8053 44.4673 14.5326 44.8154 14.1615C44.8885 14.4748 45.0813 14.7465 45.3519 14.9173C45.6224 15.0881 45.9489 15.1442 46.2603 15.0736C46.7623 15.0049 47.2437 14.8276 47.6716 14.554C48.0995 14.2804 48.4638 13.9169 48.7396 13.4883C49.1768 12.731 49.0733 12.2227 48.8698 12.0208ZM45.7497 8.14668C46.1502 8.40922 47.0211 8.29814 47.6585 7.90097C48.6229 7.29849 48.8531 6.2921 48.773 6.17093C48.7417 6.1236 48.6265 6.1995 48.4373 6.32403C48.1422 6.51833 47.6673 6.83104 47.0511 6.97873C46.8056 7.02623 46.5529 7.0208 46.3097 6.96279C46.0664 6.90478 45.838 6.7955 45.6396 6.64214C45.4627 6.71619 45.3927 7.91444 45.7497 8.14668ZM42.5896 18.9612C42.5896 18.9612 43.1769 17.7696 42.8366 17.6754C42.573 17.6024 42.0932 18.1209 41.6376 18.6133L41.6376 18.6134C41.5048 18.7568 41.3742 18.898 41.2515 19.0217C41.17 19.104 41.0885 19.1921 41.0084 19.2786L40.9345 19.3583C41.1881 19.2372 41.4984 19.1294 41.6686 19.2304C41.841 19.3304 41.7824 19.551 41.6618 20.0055C41.5956 20.255 41.5107 20.5749 41.435 20.984C41.2215 22.1385 41.7687 22.1419 42.2626 21.775C42.7023 21.4514 42.9592 20.7896 43.1056 20.4125C43.1647 20.2601 43.2058 20.1542 43.2337 20.1358C43.3304 20.0719 44.1113 20.3546 43.9177 21.011C43.6942 21.7582 42.4194 22.4381 41.435 22.566C39.82 22.7713 40.1336 20.9605 40.3839 20.0618C40.187 20.3378 40.0001 20.6172 39.83 20.873C39.6985 21.3162 39.5882 21.719 39.496 22.0554C39.4244 22.3168 39.3638 22.5381 39.3127 22.7073C39.2234 23.0034 38.8804 23.1616 38.6239 23.2799C38.545 23.3162 38.4743 23.3488 38.4218 23.3805C38.1982 23.5152 37.9479 23.5589 38.0447 23.0439C38.0522 23.0032 38.0616 22.9565 38.0722 22.9043C38.0853 22.8398 38.1 22.7671 38.1148 22.6871C37.7811 23.1853 37.2605 23.6969 36.5964 23.6666C36.425 23.6669 36.2566 23.6205 36.1092 23.5322C35.9617 23.4439 35.8407 23.3171 35.7589 23.1651C35.5063 23.4285 35.2377 23.6758 34.9547 23.9056C34.4207 24.3364 33.3062 24.875 32.6421 24.2927C32.2904 24.7996 31.7897 25.1823 31.2106 25.3866C30.0326 25.6693 29.0883 24.7706 29.7991 22.4482C29.2897 22.7492 28.8023 23.0866 28.3408 23.4579C28.1102 24.1951 27.9321 24.8693 27.7936 25.3939C27.7195 25.6742 27.6568 25.9117 27.6033 26.0934C27.5057 26.4188 27.1042 26.5998 26.8228 26.7267C26.7578 26.7559 26.6992 26.7823 26.6523 26.807C26.402 26.9382 26.1417 27.0022 26.2452 26.4704C26.4601 25.2812 26.7556 24.1082 27.1295 22.9598C27.6534 21.3846 28.1306 20.1156 28.5877 19.7959C29.0449 19.4761 29.7724 19.2843 29.9225 19.4593C30.0082 19.5592 29.8679 19.8398 29.6188 20.3382C29.4313 20.7133 29.1822 21.2117 28.9214 21.8491C28.848 22.0375 28.7779 22.226 28.7079 22.4145C28.9214 22.2799 29.175 22.1251 29.462 21.9568C29.749 21.7885 29.9325 21.6875 30.0927 21.6202C30.5232 20.3916 30.957 19.4559 31.3341 19.19C31.7779 18.8534 32.522 18.6885 32.6688 18.8534C32.7391 18.9324 32.6153 19.1676 32.4105 19.5571C32.1872 19.9817 31.8675 20.5896 31.5977 21.3778C31.301 22.1747 31.0591 22.9911 30.8736 23.8214C30.7301 24.6831 30.967 25.225 31.6811 24.7134C31.9608 24.4925 32.1887 24.2121 32.3485 23.8921C32.2593 23.6955 32.1986 23.4869 32.1683 23.2728C31.9147 21.7212 33.2161 18.978 34.9547 18.325C35.7489 18.0288 36.3996 18.2139 36.7333 18.6616C36.7821 18.5665 36.8414 18.4773 36.9101 18.3957C37.2004 18.0961 37.9546 17.8538 38.2449 17.9817C38.4169 18.0575 38.3335 18.2396 38.1288 18.687L38.1287 18.687C37.9879 18.9947 37.7896 19.4279 37.5775 20.0382C37.5408 20.1421 37.5017 20.2511 37.4615 20.3635C37.0008 21.6492 36.3787 23.3854 37.1704 23.1718C37.681 23.0338 38.3951 21.2937 38.6553 20.6205C38.7354 20.3546 38.8189 20.0853 38.909 19.8161C39.4095 18.3553 39.7465 17.497 40.1603 17.2042C40.5741 16.9114 41.2649 16.7363 41.3917 16.8912C41.46 16.9746 41.385 17.1195 41.2136 17.4506C41.0668 17.7342 40.8494 18.1544 40.5908 18.7895C40.494 19.0352 40.4006 19.2775 40.3138 19.5199C40.7466 18.8803 41.2298 18.277 41.7587 17.7158C42.7331 16.706 43.2937 16.5175 43.7976 16.6623C44.485 16.8575 44.1313 18.426 43.7542 18.7054C43.3971 18.8981 42.9939 18.9867 42.5896 18.9612ZM35.582 22.3607C35.6006 21.9466 35.6689 21.5363 35.7856 21.1389C35.6305 21.1731 35.4684 21.1504 35.3284 21.0749C35.6358 20.4526 35.8742 19.7979 36.0392 19.1227C36.226 18.2106 35.4952 18.6178 35.2083 18.978C34.5258 19.8144 34.0091 20.7754 33.6866 21.8087C33.0459 23.6801 33.8201 24.1648 34.5008 23.7508C34.9753 23.3863 35.3525 22.9086 35.5987 22.3607H35.582ZM26.1284 28.8332C26.0583 32.3909 22.975 36.753 18.2932 37.5608C13.3145 38.4191 12.4035 34.8682 13.9552 32.4919C15.5069 30.1156 17.2287 29.7588 17.7259 30.2603C18.0763 30.6171 18.3299 31.4013 18.2298 31.5023C18.1776 31.555 18.0891 31.5765 17.9521 31.6099C17.8263 31.6405 17.6595 31.6811 17.4423 31.7648C16.1742 32.2462 13.8417 33.4074 14.082 35.3562C14.4557 38.4191 20.0318 36.5107 22.3243 33.1179C24.3264 30.1728 24.6301 27.7023 23.8025 26.504C23.3029 26.8529 22.7642 27.141 22.1975 27.3623C19.3544 28.4697 18.9806 26.9046 19.8616 26.016C20.529 25.3428 21.9705 24.9153 23.3153 25.1173C23.6466 24.7533 23.948 24.3627 24.2163 23.9493C25.9515 21.287 26.0049 20.082 25.4176 19.7521C24.7502 19.3718 21.6469 21.4788 20.0117 24.2927C20.0117 24.2927 18.6269 23.0237 20.1886 21.3745C21.7503 19.7252 25.2641 18.2173 26.3954 19.5771C27.323 20.6845 26.8625 23.6161 24.7869 25.676C25.5978 26.2415 26.1684 27.2344 26.1284 28.8332ZM22.6746 25.7568C21.1497 25.3428 20.0051 26.3155 19.9283 26.9786C19.8549 27.4969 21.2431 27.0628 22.6746 25.7568ZM43.6045 27.8807C46.6612 27.4499 48.3063 26.2214 48.3063 26.2214C48.3063 26.2214 48.5099 29.0419 47.0449 30.7383C44.8248 33.331 42.066 33.0944 39.3116 32.8582C36.949 32.6556 34.5896 32.4533 32.5759 34.0369C32.2999 33.8891 32.0813 33.652 31.9552 33.3637C31.2544 32.3203 31.0208 29.3953 33.3701 28.2712C35.2629 27.3568 36.7558 27.5611 38.6211 27.8163C39.4062 27.9237 40.2573 28.0402 41.2319 28.086C42.0259 28.0617 42.818 27.9932 43.6045 27.8807Z" fill="#A0A0A0"/>
</g>
</svg>
