<svg width="143" height="51" viewBox="0 0 143 51" fill="none" xmlns="http://www.w3.org/2000/svg">
<g clip-path="url(#clip0_2025_16)">
<path d="M37.2466 35.218L32.8543 37.8118C32.5375 37.9795 32.1551 37.9795 31.8491 37.8006L16.6293 28.8005C16.3452 28.6439 16.1704 28.3309 16.1704 28.0067V22.7519C16.1704 22.383 15.9737 22.0364 15.6678 21.8575L12.2808 19.8562C11.6143 19.4649 10.773 19.9568 10.773 20.7507V31.1372C10.773 31.5061 10.9697 31.8527 11.2756 32.0316L31.8382 44.1958C32.1551 44.3746 32.5375 44.3746 32.8434 44.1958L42.6221 38.4155C42.9281 38.2255 43.1247 37.8901 43.1247 37.5211V13.1928C43.1247 12.8238 42.9281 12.4772 42.6221 12.2983L22.0704 0.134164C21.7536 -0.0447212 21.3712 -0.0447212 21.0652 0.134164L17.6782 2.13544C17.0117 2.52675 17.0117 3.5218 17.6782 3.91311L37.2466 15.4847C37.5525 15.6748 37.7492 16.0102 37.7492 16.3792V34.3235C37.7492 34.6925 37.5525 35.0391 37.2466 35.218ZM26.4517 21.8687C26.7577 22.0476 26.9543 22.383 26.9543 22.7519V26.7768C26.9543 27.5595 27.7956 28.0514 28.4621 27.6601L31.8491 25.6588C32.1551 25.4687 32.3517 25.1333 32.3517 24.7644V19.5767C32.3517 19.2078 32.1551 18.8612 31.8491 18.6823L11.2865 6.51812C10.9697 6.33923 10.5872 6.33923 10.2813 6.51812L0.502594 12.2983C0.196667 12.4884 0 12.8238 0 13.1928V37.5211C0 37.8901 0.196667 38.2367 0.502594 38.4155L21.0652 50.5797C21.3821 50.7586 21.7645 50.7586 22.0704 50.5797L25.4575 48.5784C26.1239 48.1871 26.1239 47.1921 25.4575 46.8008L5.88909 35.2292C5.58316 35.0391 5.38649 34.7037 5.38649 34.3347V16.3792C5.38649 16.0102 5.58316 15.6636 5.88909 15.4847L10.2813 12.8909C10.5982 12.712 10.9806 12.712 11.2865 12.8909L26.4517 21.8687Z" fill="url(#paint0_linear_2025_16)"/>
<g clip-path="url(#clip1_2025_16)">
<path d="M81.032 14.0027H75.3724C72.9141 14.0027 70.8491 16.1269 70.8491 18.6425V29.0849H74.247V25.2165H82.1683V29.0849H85.5663V18.6202C85.5008 16.071 83.4685 14.0027 81.043 14.0027H81.032ZM74.2361 18.6425C74.2361 18.0052 74.7496 17.4798 75.3724 17.4798H81.032C81.6548 17.4798 82.1683 18.0052 82.1683 18.6425V21.7395H74.247V18.6425H74.2361Z" fill="#242422"/>
<path d="M64.0856 14.0027L58.4368 19.8053H56.492V14.0027H53.0941V29.0849H56.492V23.2823H58.4368L64.0856 29.0849H68.8821L61.518 21.5382L68.8821 14.0027H64.0856Z" fill="#242422"/>
<path d="M138.776 24.4451C138.776 25.0824 138.262 25.6078 137.639 25.6078H131.98C131.357 25.6078 130.843 25.0824 130.843 24.4451V18.6425C130.843 18.0052 131.357 17.4798 131.98 17.4798H137.639C138.262 17.4798 138.776 18.0052 138.776 18.6425V19.414H142.195L142.174 18.6202C142.108 16.071 140.076 14.0027 137.65 14.0027H131.969C129.434 14.0698 127.467 16.1158 127.467 18.6425V24.4451C127.467 27.0054 129.5 29.0849 131.991 29.0849H137.65C140.109 29.0849 142.174 26.9607 142.174 24.4451V23.6737H138.776V24.4451Z" fill="#242422"/>
<path d="M112.739 23.4948V14.0027H109.341V29.0849H112.324L120.66 19.4251V29.0849H124.069V14.0027H121.087L112.739 23.4948Z" fill="#242422"/>
<path d="M104.807 14.0027H94.613C92.1547 14.0027 90.0897 16.1269 90.0897 18.6425V25.6078H88.1995V29.0849H106.697V25.6078H104.807V14.0027ZM101.409 17.4798V25.5967H93.4876V18.6313C93.4876 17.9941 94.0011 17.4686 94.6239 17.4686H101.409V17.4798Z" fill="#242422"/>
<path d="M54.3985 39.0137C54.1363 39.0137 53.8741 38.969 53.6119 38.8907C53.3496 38.8013 53.153 38.6895 53.0109 38.533L53.2513 38.0075C53.4043 38.1417 53.5682 38.2535 53.7648 38.3206C53.9615 38.3988 54.1581 38.4324 54.3548 38.4324C54.6935 38.4324 54.9776 38.3317 55.1743 38.1417C55.3819 37.9404 55.513 37.6609 55.5567 37.292H53.7211V36.7106H55.5567C55.513 36.3975 55.3928 36.1404 55.1961 35.928C55.0104 35.7267 54.7263 35.6261 54.3439 35.6261C54.1582 35.6261 53.9615 35.6596 53.7648 35.7267C53.5682 35.7938 53.3933 35.9056 53.2404 36.0398L53 35.5143C53.1639 35.369 53.3715 35.2571 53.6228 35.1677C53.8741 35.0783 54.1363 35.0335 54.3876 35.0335C54.9776 35.0335 55.4365 35.2124 55.7752 35.559C56.1139 35.9056 56.2887 36.3864 56.2887 37.0013C56.2887 37.4149 56.2122 37.7727 56.0593 38.0858C55.9063 38.3876 55.6878 38.6112 55.3928 38.7789C55.1087 38.9466 54.77 39.0249 54.3767 39.0249H54.3985V39.0137ZM57.2611 38.9355V35.0894H58.0369V36.6435H59.9052V35.0894H60.6809V38.9355H59.9052V37.2696H58.0369V38.9355H57.2611ZM63.6091 39.0026C62.9972 39.0026 62.5056 38.8237 62.1559 38.4771C61.8063 38.1193 61.6206 37.6386 61.6206 37.0236C61.6206 36.6323 61.6971 36.2857 61.85 35.9839C62.0139 35.682 62.2324 35.4472 62.5056 35.2795C62.7787 35.1118 63.1065 35.0224 63.4561 35.0224C63.9697 35.0224 64.3848 35.1901 64.6798 35.5367C64.9748 35.8721 65.1278 36.3416 65.1278 36.9342V37.2025H62.3745C62.4291 37.9963 62.8443 38.3988 63.6091 38.3988C63.8276 38.3988 64.0352 38.3653 64.2428 38.2982C64.4504 38.2311 64.6471 38.1193 64.8328 37.9628L65.0622 38.5106C64.8874 38.6671 64.6798 38.7901 64.4067 38.8796C64.1445 38.969 63.8713 39.0137 63.5982 39.0137L63.6091 39.0026ZM63.4889 35.559C63.1611 35.559 62.9098 35.6596 62.7241 35.8609C62.5384 36.0621 62.4182 36.3416 62.3745 36.677H64.4722C64.4722 36.3193 64.363 36.0398 64.1991 35.8497C64.0243 35.6485 63.7948 35.5478 63.4889 35.5478V35.559ZM66.0565 40.3442V35.0783H66.8213V35.7379C66.9306 35.5143 67.0945 35.3466 67.313 35.2124C67.5315 35.0783 67.7828 35.0112 68.0778 35.0112C68.4165 35.0112 68.7006 35.0894 68.9519 35.2571C69.2032 35.4249 69.3999 35.6485 69.531 35.9503C69.673 36.241 69.7386 36.5988 69.7386 37.0013C69.7386 37.4038 69.673 37.7615 69.531 38.0634C69.3999 38.3653 69.2032 38.5889 68.9519 38.7566C68.7006 38.9131 68.4165 38.9914 68.0778 38.9914C67.8047 38.9914 67.5534 38.9355 67.3348 38.8125C67.1163 38.6895 66.9524 38.5106 66.8432 38.2982V40.3442H66.0565ZM67.8811 38.3765C68.2089 38.3765 68.4602 38.2535 68.646 38.0187C68.8426 37.7839 68.941 37.4373 68.941 36.9901C68.941 36.5429 68.8426 36.2075 68.646 35.9727C68.4602 35.7379 68.198 35.6149 67.8811 35.6149C67.5643 35.6149 67.3021 35.7379 67.1054 35.9727C66.9197 36.2075 66.8213 36.5429 66.8213 36.9901C66.8213 37.4373 66.9197 37.7727 67.1054 38.0187C67.3021 38.2535 67.5643 38.3765 67.8811 38.3765ZM70.6782 38.9243V35.0783H73.4097V35.7155H71.4649V38.9243H70.6782ZM74.1089 38.9243V35.0783H74.8191V37.8733L76.8513 35.0783H77.5069V38.9243H76.7967V36.1404L74.7645 38.9243H74.1089ZM78.3591 38.9243L78.9273 37.9181C79.0802 37.6497 79.266 37.4597 79.5173 37.3702C79.2004 37.3143 78.9601 37.1913 78.7852 37.0125C78.6104 36.8224 78.5339 36.5652 78.5339 36.2522C78.5339 35.8944 78.6541 35.6149 78.8836 35.4025C79.1239 35.1901 79.4736 35.0783 79.9434 35.0783H81.7352V38.9243H81.0141V37.5267H80.5334C80.3586 37.5267 80.1947 37.5715 80.0745 37.6721C79.9434 37.7615 79.8451 37.8845 79.7577 38.0299L79.2551 38.9243H78.3591ZM80.0964 36.9789H81.0032V35.6261H80.0964C79.8123 35.6261 79.6047 35.682 79.4736 35.805C79.3425 35.9168 79.2769 36.0845 79.2769 36.2969C79.2769 36.5093 79.3425 36.677 79.4736 36.8C79.6047 36.923 79.8123 36.9789 80.0964 36.9789ZM84.9147 38.9243V35.0783H88.3236V38.9243H87.5479V35.7155H85.7014V38.9243H84.9147ZM89.4817 40.3442V35.0783H90.2466V35.7379C90.3558 35.5143 90.5197 35.3466 90.7382 35.2124C90.9567 35.0783 91.208 35.0112 91.503 35.0112C91.8418 35.0112 92.1258 35.0894 92.3771 35.2571C92.6284 35.4249 92.8251 35.6485 92.9562 35.9503C93.0982 36.241 93.1638 36.5988 93.1638 37.0013C93.1638 37.4038 93.0982 37.7615 92.9562 38.0634C92.8251 38.3653 92.6284 38.5889 92.3771 38.7566C92.1258 38.9131 91.8418 38.9914 91.503 38.9914C91.2299 38.9914 90.9786 38.9355 90.7601 38.8125C90.5416 38.6895 90.3777 38.5106 90.2684 38.2982V40.3442H89.4817ZM91.3064 38.3765C91.6342 38.3765 91.8855 38.2535 92.0712 38.0187C92.2679 37.7839 92.3662 37.4373 92.3662 36.9901C92.3662 36.5429 92.2679 36.2075 92.0712 35.9727C91.8855 35.7379 91.6232 35.6149 91.3064 35.6149C90.9895 35.6149 90.7273 35.7379 90.5306 35.9727C90.3449 36.2075 90.2466 36.5429 90.2466 36.9901C90.2466 37.4373 90.3449 37.7727 90.5306 38.0187C90.7273 38.2535 90.9895 38.3765 91.3064 38.3765ZM95.3162 38.9914C95.054 38.9914 94.8245 38.9355 94.6169 38.8348C94.4093 38.7342 94.2455 38.5889 94.1253 38.41C94.0051 38.2311 93.9505 38.0299 93.9505 37.8063C93.9505 37.5267 94.016 37.3031 94.1581 37.1354C94.3001 36.9677 94.5405 36.8559 94.8573 36.7777C95.1851 36.6994 95.6221 36.6659 96.1794 36.6659H96.4416V36.4646C96.4416 36.1628 96.376 35.9503 96.2558 35.8162C96.1357 35.682 95.9281 35.6149 95.644 35.6149C95.4255 35.6149 95.2179 35.6485 94.9993 35.7155C94.7808 35.7826 94.5623 35.8832 94.3329 36.0174L94.0925 35.4584C94.2892 35.3131 94.5295 35.2012 94.8245 35.123C95.1195 35.0335 95.3927 35 95.6658 35C96.1794 35 96.5618 35.123 96.8021 35.3801C97.0534 35.6261 97.1736 36.0174 97.1736 36.5429V38.9131H96.4416V38.2758C96.3542 38.4994 96.2012 38.6671 96.0155 38.8013C95.8188 38.9243 95.5894 38.9914 95.3162 38.9914ZM95.4692 38.4212C95.7423 38.4212 95.9827 38.3206 96.1575 38.1193C96.3432 37.9181 96.4306 37.6721 96.4306 37.359V37.1466H96.1794C95.8079 37.1466 95.5129 37.169 95.2944 37.2025C95.0868 37.2361 94.9338 37.3031 94.8355 37.3926C94.7481 37.482 94.7044 37.5938 94.7044 37.7504C94.7044 37.9516 94.7699 38.1081 94.901 38.2423C95.0321 38.3653 95.2179 38.4212 95.4582 38.4212H95.4692ZM98.3318 38.9131V35.0671H100.255C100.714 35.0671 101.052 35.1565 101.26 35.3354C101.478 35.5143 101.588 35.7603 101.588 36.0733C101.588 36.2746 101.533 36.4534 101.413 36.5988C101.304 36.7441 101.151 36.8559 100.965 36.923C101.205 36.9789 101.38 37.0907 101.511 37.2584C101.642 37.4261 101.708 37.6162 101.708 37.8398C101.708 38.1752 101.588 38.4324 101.347 38.6224C101.107 38.8125 100.757 38.9019 100.32 38.9019H98.3318V38.9131ZM99.0638 36.7106H100.2C100.408 36.7106 100.572 36.6659 100.681 36.5652C100.801 36.4646 100.856 36.3305 100.856 36.1516C100.856 35.9727 100.801 35.8385 100.681 35.7379C100.572 35.6485 100.408 35.5926 100.2 35.5926H99.0638V36.6994V36.7106ZM99.0638 38.4212H100.266C100.746 38.4212 100.987 38.2199 100.987 37.8174C100.987 37.4149 100.746 37.2249 100.266 37.2249H99.0638V38.41V38.4212ZM104.243 39.0137C103.86 39.0137 103.533 38.9355 103.259 38.7678C102.986 38.6001 102.768 38.3765 102.615 38.0858C102.462 37.7839 102.396 37.4261 102.396 37.0236C102.396 36.6211 102.473 36.2634 102.615 35.9727C102.768 35.6708 102.986 35.4472 103.259 35.2795C103.533 35.1118 103.86 35.0335 104.243 35.0335C104.625 35.0335 104.931 35.1118 105.215 35.2795C105.488 35.4472 105.707 35.6708 105.86 35.9727C106.013 36.2634 106.089 36.6211 106.089 37.0236C106.089 37.4261 106.013 37.7839 105.86 38.0858C105.707 38.3765 105.488 38.6112 105.215 38.7678C104.942 38.9355 104.614 39.0137 104.243 39.0137ZM104.243 38.3988C104.56 38.3988 104.822 38.2758 105.008 38.041C105.193 37.8063 105.303 37.4597 105.303 37.0125C105.303 36.5652 105.204 36.2298 105.008 35.995C104.811 35.7603 104.56 35.6373 104.243 35.6373C103.926 35.6373 103.664 35.7603 103.467 35.995C103.27 36.2298 103.172 36.5652 103.172 37.0125C103.172 37.4597 103.27 37.7951 103.467 38.041C103.664 38.287 103.926 38.3988 104.243 38.3988ZM107.051 38.9466V35.1006H108.974C109.433 35.1006 109.771 35.1901 109.979 35.369C110.197 35.5478 110.307 35.7938 110.307 36.1069C110.307 36.3081 110.252 36.487 110.132 36.6323C110.023 36.7777 109.87 36.8895 109.684 36.9566C109.924 37.0125 110.099 37.1243 110.23 37.292C110.361 37.4597 110.427 37.6497 110.427 37.8733C110.427 38.2088 110.307 38.4659 110.066 38.656C109.826 38.846 109.476 38.9355 109.039 38.9355H107.051V38.9466ZM107.783 36.7441H108.919C109.127 36.7441 109.29 36.6994 109.4 36.5988C109.52 36.4982 109.575 36.364 109.575 36.1851C109.575 36.0062 109.52 35.8721 109.4 35.7714C109.29 35.682 109.127 35.6261 108.919 35.6261H107.783V36.7329V36.7441ZM107.783 38.4547H108.985C109.465 38.4547 109.706 38.2535 109.706 37.851C109.706 37.4485 109.465 37.2584 108.985 37.2584H107.783V38.4435V38.4547ZM112.962 39.0473C112.579 39.0473 112.251 38.969 111.978 38.8013C111.705 38.6336 111.487 38.41 111.334 38.1193C111.181 37.8174 111.115 37.4597 111.115 37.0572C111.115 36.6547 111.192 36.2969 111.334 36.0062C111.487 35.7044 111.705 35.4808 111.978 35.313C112.251 35.1453 112.579 35.0671 112.962 35.0671C113.344 35.0671 113.65 35.1453 113.934 35.313C114.207 35.4808 114.426 35.7044 114.579 36.0062C114.732 36.2969 114.808 36.6547 114.808 37.0572C114.808 37.4597 114.732 37.8174 114.579 38.1193C114.426 38.41 114.207 38.6448 113.934 38.8013C113.661 38.969 113.333 39.0473 112.962 39.0473ZM112.962 38.4324C113.278 38.4324 113.541 38.3094 113.726 38.0746C113.923 37.8398 114.021 37.4932 114.021 37.046C114.021 36.5988 113.923 36.2634 113.726 36.0286C113.53 35.7938 113.278 35.6708 112.962 35.6708C112.645 35.6708 112.383 35.7938 112.186 36.0286C111.989 36.2634 111.891 36.5988 111.891 37.046C111.891 37.4932 111.989 37.8286 112.186 38.0746C112.383 38.3094 112.645 38.4324 112.962 38.4324ZM115.77 38.9802V35.1342H118.501V35.7714H116.556V38.9802H115.77ZM120.828 39.0473C120.446 39.0473 120.118 38.969 119.845 38.8013C119.572 38.6336 119.353 38.41 119.2 38.1193C119.047 37.8174 118.982 37.4597 118.982 37.0572C118.982 36.6547 119.058 36.2969 119.2 36.0062C119.353 35.7044 119.572 35.4808 119.845 35.313C120.118 35.1453 120.446 35.0671 120.828 35.0671C121.211 35.0671 121.517 35.1453 121.801 35.313C122.074 35.4808 122.292 35.7044 122.445 36.0062C122.598 36.2969 122.675 36.6547 122.675 37.0572C122.675 37.4597 122.598 37.8174 122.445 38.1193C122.292 38.41 122.074 38.6448 121.801 38.8013C121.528 38.969 121.2 39.0473 120.828 39.0473ZM120.828 38.4324C121.145 38.4324 121.407 38.3094 121.593 38.0746C121.79 37.8398 121.888 37.4932 121.888 37.046C121.888 36.5988 121.79 36.2634 121.593 36.0286C121.396 35.7938 121.145 35.6708 120.828 35.6708C120.511 35.6708 120.249 35.7938 120.053 36.0286C119.856 36.2634 119.758 36.5988 119.758 37.046C119.758 37.4932 119.856 37.8286 120.053 38.0746C120.249 38.3094 120.511 38.4324 120.828 38.4324ZM125.647 38.9802V35.1342H129.056V38.9802H128.28V35.7714H126.433V38.9802H125.647ZM131.842 39.0473C131.459 39.0473 131.131 38.969 130.858 38.8013C130.585 38.6336 130.367 38.41 130.214 38.1193C130.061 37.8174 129.995 37.4597 129.995 37.0572C129.995 36.6547 130.072 36.2969 130.214 36.0062C130.367 35.7044 130.585 35.4808 130.858 35.313C131.131 35.1453 131.459 35.0671 131.842 35.0671C132.224 35.0671 132.53 35.1453 132.814 35.313C133.087 35.4808 133.306 35.7044 133.459 36.0062C133.612 36.2969 133.688 36.6547 133.688 37.0572C133.688 37.4597 133.612 37.8174 133.459 38.1193C133.306 38.41 133.087 38.6448 132.814 38.8013C132.541 38.969 132.213 39.0473 131.842 39.0473ZM131.842 38.4324C132.159 38.4324 132.421 38.3094 132.606 38.0746C132.803 37.8398 132.901 37.4932 132.901 37.046C132.901 36.5988 132.803 36.2634 132.606 36.0286C132.41 35.7938 132.159 35.6708 131.842 35.6708C131.525 35.6708 131.263 35.7938 131.066 36.0286C130.869 36.2634 130.771 36.5988 130.771 37.046C130.771 37.4932 130.869 37.8286 131.066 38.0746C131.263 38.3094 131.525 38.4324 131.842 38.4324ZM134.409 39.0808L134.147 38.4547C134.376 38.3653 134.551 38.2311 134.682 38.0634C134.814 37.8957 134.901 37.6609 134.956 37.3702C135.01 37.0684 135.043 36.6882 135.043 36.2075V35.123H137.906V38.969H137.13V35.7603H135.764V36.2298C135.764 36.8112 135.72 37.292 135.622 37.6721C135.535 38.0522 135.382 38.3653 135.185 38.5889C134.988 38.8125 134.726 38.969 134.409 39.0808ZM138.758 38.9802L139.326 37.974C139.479 37.7056 139.665 37.5156 139.916 37.4261C139.599 37.3702 139.359 37.2472 139.184 37.0684C139.009 36.8783 138.933 36.6211 138.933 36.3081C138.933 35.9503 139.053 35.6708 139.282 35.4584C139.523 35.246 139.872 35.1342 140.342 35.1342H142.134V38.9802H141.413V37.5827H140.932C140.757 37.5827 140.593 37.6274 140.473 37.728C140.342 37.8174 140.244 37.9404 140.156 38.0858L139.654 38.9802H138.758ZM140.495 37.0348H141.402V35.682H140.495C140.211 35.682 140.003 35.7379 139.872 35.8609C139.741 35.9727 139.676 36.1404 139.676 36.3528C139.676 36.5652 139.741 36.7329 139.872 36.8559C140.003 36.9789 140.211 37.0348 140.495 37.0348Z" fill="#242422"/>
</g>
</g>
<defs>
<linearGradient id="paint0_linear_2025_16" x1="10.7621" y1="44.4864" x2="33.1167" y2="6.6619" gradientUnits="userSpaceOnUse">
<stop stop-color="#5C63AB"/>
<stop offset="0.49" stop-color="#7F5EA5"/>
<stop offset="1" stop-color="#CBB6D9"/>
</linearGradient>
<clipPath id="clip0_2025_16">
<rect width="143" height="51" fill="white"/>
</clipPath>
<clipPath id="clip1_2025_16">
<rect x="-1" y="1" width="143.217" height="50.7027" rx="12" fill="white"/>
</clipPath>
</defs>
</svg>
